<svg width="65" height="65" viewBox="0 0 65 65" fill="none" xmlns="http://www.w3.org/2000/svg">
<circle cx="32.5" cy="32.5" r="32" fill="white" stroke="black"/>
<g clip-path="url(#clip0_167_239)">
<path d="M45.7203 18.1777H20.3813C18.2528 18.1802 16.5278 19.9051 16.5254 22.0337V44.0676C16.5278 46.1961 18.2528 47.9211 20.3813 47.9235H45.7203C47.8489 47.9211 49.5738 46.1961 49.5762 44.0676V22.0337C49.5738 19.9051 47.8489 18.1802 45.7203 18.1777ZM48.4745 44.0676C48.4727 45.5879 47.2407 46.82 45.7203 46.8218H20.3813C18.861 46.82 17.6289 45.5879 17.6271 44.0676V22.0337C17.6289 20.5133 18.861 19.2813 20.3813 19.2794H45.7203C47.2407 19.2813 48.4727 20.5133 48.4745 22.0337V44.0676Z" fill="#901AC7"/>
<path d="M45.7203 22.5845H20.3813C19.4686 22.5845 18.7288 23.3243 18.7288 24.237V44.0675C18.7288 44.9802 19.4686 45.7201 20.3813 45.7201H45.7203C46.633 45.7201 47.3728 44.9802 47.3728 44.0675V24.237C47.3728 23.3243 46.633 22.5845 45.7203 22.5845ZM33.0508 33.5265L27.0515 30.2963L33.0508 27.0662L39.0501 30.2963L33.0508 33.5265ZM39.661 31.2185V37.6777L33.6016 40.942V34.4828L39.661 31.2185ZM32.4999 34.4828V40.942L26.4406 37.6777V31.2185L32.4999 34.4828ZM19.8305 24.237C19.8305 23.9328 20.0771 23.6862 20.3813 23.6862H32.4999V26.1099L25.6287 29.8116C25.6215 29.8154 25.6133 29.8171 25.6061 29.8215C25.4395 29.9216 25.338 30.102 25.3389 30.2963V34.9135L19.8305 37.6678V24.237ZM46.2711 44.0675C46.2711 44.3717 46.0245 44.6184 45.7203 44.6184H20.3813C20.0771 44.6184 19.8305 44.3717 19.8305 44.0675V38.8995L25.3389 36.1452V38.0082C25.339 38.2108 25.4503 38.3969 25.6287 38.4929L32.7897 42.3489C32.9527 42.4366 33.1489 42.4366 33.3119 42.3489L40.4729 38.4929C40.6513 38.3969 40.7626 38.2108 40.7627 38.0082V36.1452L46.2711 38.8995V44.0675ZM46.2711 37.6678L40.7627 34.9135V30.2963C40.7626 30.1026 40.6607 29.9231 40.4944 29.8237C40.4872 29.8193 40.479 29.8177 40.4718 29.8138L33.6016 26.1099V23.6862H45.7203C46.0245 23.6862 46.2711 23.9328 46.2711 24.237V37.6678Z" fill="#901AC7"/>
<path d="M19.8304 21.483C20.1346 21.483 20.3812 21.2364 20.3812 20.9322C20.3812 20.628 20.1346 20.3813 19.8304 20.3813C19.5262 20.3813 19.2795 20.628 19.2795 20.9322C19.2795 21.2364 19.5262 21.483 19.8304 21.483Z" fill="#901AC7"/>
<path d="M22.0338 21.483C22.338 21.483 22.5846 21.2364 22.5846 20.9322C22.5846 20.628 22.338 20.3813 22.0338 20.3813C21.7295 20.3813 21.4829 20.628 21.4829 20.9322C21.4829 21.2364 21.7295 21.483 22.0338 21.483Z" fill="#901AC7"/>
<path d="M24.2371 21.483C24.5413 21.483 24.788 21.2364 24.788 20.9322C24.788 20.628 24.5413 20.3813 24.2371 20.3813C23.9329 20.3813 23.6863 20.628 23.6863 20.9322C23.6863 21.2364 23.9329 21.483 24.2371 21.483Z" fill="#901AC7"/>
<path d="M38.0084 21.483H45.7202C46.0245 21.483 46.2711 21.2364 46.2711 20.9322C46.2711 20.628 46.0245 20.3813 45.7202 20.3813H38.0084C37.7041 20.3813 37.4575 20.628 37.4575 20.9322C37.4575 21.2364 37.7041 21.483 38.0084 21.483Z" fill="#901AC7"/>
</g>
<rect x="17.0254" y="17.0254" width="32.0508" height="32.0508" stroke="black"/>
<defs>
<clipPath id="clip0_167_239">
<rect x="16.5254" y="16.5254" width="33.0508" height="33.0508" fill="white"/>
</clipPath>
</defs>
</svg>
