<svg width="1219" height="102" viewBox="0 0 1219 102" fill="none" xmlns="http://www.w3.org/2000/svg">
<path d="M843.254 22.8921C838.043 22.8921 833.804 27.1315 833.804 32.3423C833.804 38.8918 843.263 50.0796 843.263 50.0796C843.263 50.0796 852.704 38.5697 852.704 32.3423C852.704 27.1315 848.465 22.8921 843.254 22.8921ZM846.105 35.1094C845.319 35.8954 844.287 36.2885 843.254 36.2885C842.221 36.2885 841.189 35.8954 840.403 35.1094C838.831 33.5373 838.831 30.9791 840.403 29.4069C841.164 28.6452 842.177 28.2257 843.254 28.2257C844.331 28.2257 845.344 28.6454 846.105 29.4069C847.678 30.9791 847.678 33.5373 846.105 35.1094Z" fill="white"/>
<path d="M883.94 35.58C883.607 36.3267 883.253 36.9733 882.88 37.52C882.507 38.0667 882.06 38.4867 881.54 38.78C881.033 39.06 880.393 39.2 879.62 39.2C879.233 39.2 878.893 39.1667 878.6 39.1C878.32 39.0467 878.067 38.98 877.84 38.9V37.74C878.08 37.86 878.34 37.9533 878.62 38.02C878.913 38.0867 879.22 38.12 879.54 38.12C880.087 38.12 880.547 38.02 880.92 37.82C881.307 37.6067 881.64 37.3 881.92 36.9C882.2 36.4867 882.473 35.98 882.74 35.38L877.18 24.72H878.46L882.78 33.12C882.86 33.2533 882.927 33.3867 882.98 33.52C883.047 33.6533 883.107 33.7867 883.16 33.92C883.227 34.0533 883.287 34.1933 883.34 34.34H883.38C883.433 34.22 883.487 34.0933 883.54 33.96C883.593 33.8133 883.647 33.6733 883.7 33.54C883.767 33.4067 883.82 33.2867 883.86 33.18L887.64 24.72H888.88L883.94 35.58ZM896.963 39H895.823V29.34H892.223C892.09 31.02 891.936 32.4733 891.763 33.7C891.59 34.9267 891.363 35.94 891.083 36.74C890.816 37.54 890.476 38.1333 890.063 38.52C889.663 38.9067 889.176 39.1 888.603 39.1C888.43 39.1 888.276 39.0933 888.143 39.08C888.01 39.0667 887.896 39.0467 887.803 39.02V38.1C887.883 38.1267 887.97 38.1467 888.063 38.16C888.156 38.1733 888.276 38.18 888.423 38.18C888.743 38.18 889.03 38.0533 889.283 37.8C889.55 37.5467 889.783 37.1667 889.983 36.66C890.183 36.1533 890.356 35.5133 890.503 34.74C890.663 33.9533 890.796 33.0333 890.903 31.98C891.023 30.9133 891.13 29.7067 891.223 28.36H896.963V39ZM901.559 35.78C901.559 35.9133 901.559 36.0667 901.559 36.24C901.559 36.4133 901.552 36.5933 901.539 36.78C901.539 36.9533 901.532 37.1267 901.519 37.3C901.505 37.46 901.499 37.6133 901.499 37.76L907.719 28.36H909.119V39H908.039V31.58C908.039 31.38 908.039 31.16 908.039 30.92C908.039 30.68 908.045 30.44 908.059 30.2C908.072 29.96 908.079 29.7533 908.079 29.58L901.859 39H900.479V28.36H901.559V35.78ZM922.507 42.62H921.387V39H912.647V28.36H913.787V38.02H919.927V28.36H921.067V38.02H922.507V42.62ZM928.477 28.18C929.677 28.18 930.57 28.4733 931.157 29.06C931.744 29.6467 932.037 30.58 932.037 31.86V39H931.177L930.977 37.2H930.917C930.664 37.6 930.37 37.9533 930.037 38.26C929.717 38.5533 929.324 38.7867 928.857 38.96C928.404 39.12 927.844 39.2 927.177 39.2C926.51 39.2 925.93 39.0867 925.437 38.86C924.944 38.62 924.564 38.28 924.297 37.84C924.03 37.4 923.897 36.86 923.897 36.22C923.897 35.1667 924.33 34.3667 925.197 33.82C926.064 33.26 927.324 32.94 928.977 32.86L930.917 32.78V32.02C930.917 30.9667 930.704 30.2267 930.277 29.8C929.864 29.36 929.244 29.14 928.417 29.14C927.87 29.14 927.344 29.2133 926.837 29.36C926.344 29.4933 925.844 29.6867 925.337 29.94L924.977 29.04C925.47 28.7867 926.017 28.58 926.617 28.42C927.217 28.26 927.837 28.18 928.477 28.18ZM929.097 33.7C927.75 33.7667 926.744 34.0067 926.077 34.42C925.41 34.82 925.077 35.4267 925.077 36.24C925.077 36.8933 925.284 37.3933 925.697 37.74C926.11 38.0733 926.67 38.24 927.377 38.24C928.51 38.24 929.377 37.9267 929.977 37.3C930.59 36.6733 930.904 35.7933 930.917 34.66V33.62L929.097 33.7ZM947.448 24.52V26.26C948.808 26.2867 949.935 26.5067 950.828 26.92C951.735 27.3333 952.408 27.9267 952.848 28.7C953.288 29.4733 953.508 30.4133 953.508 31.52C953.508 32.32 953.388 33.0533 953.148 33.72C952.908 34.3733 952.535 34.9467 952.028 35.44C951.521 35.92 950.888 36.3 950.128 36.58C949.368 36.8467 948.475 36.9933 947.448 37.02V39.2H946.288V37.02C945.248 36.9933 944.348 36.8467 943.588 36.58C942.828 36.3 942.195 35.92 941.688 35.44C941.195 34.96 940.828 34.3933 940.588 33.74C940.348 33.0867 940.228 32.3667 940.228 31.58C940.228 30.7933 940.348 30.08 940.588 29.44C940.828 28.7867 941.195 28.2333 941.688 27.78C942.181 27.3133 942.808 26.9533 943.568 26.7C944.341 26.4333 945.248 26.2867 946.288 26.26V24.52H947.448ZM946.288 27.28C945.195 27.2933 944.281 27.4667 943.548 27.8C942.828 28.1333 942.288 28.6133 941.928 29.24C941.581 29.8667 941.408 30.64 941.408 31.56C941.408 32.5333 941.595 33.3467 941.968 34C942.341 34.6533 942.888 35.1467 943.608 35.48C944.341 35.8133 945.235 35.9933 946.288 36.02V27.28ZM947.448 36.02C948.515 35.9933 949.408 35.8067 950.128 35.46C950.861 35.1133 951.408 34.6067 951.768 33.94C952.141 33.2733 952.328 32.46 952.328 31.5C952.328 30.5667 952.155 29.7933 951.808 29.18C951.475 28.5667 950.948 28.1 950.228 27.78C949.508 27.46 948.581 27.2933 947.448 27.28V36.02ZM960.079 28.18C961.279 28.18 962.172 28.4733 962.759 29.06C963.345 29.6467 963.639 30.58 963.639 31.86V39H962.779L962.579 37.2H962.519C962.265 37.6 961.972 37.9533 961.639 38.26C961.319 38.5533 960.925 38.7867 960.459 38.96C960.005 39.12 959.445 39.2 958.779 39.2C958.112 39.2 957.532 39.0867 957.039 38.86C956.545 38.62 956.165 38.28 955.899 37.84C955.632 37.4 955.499 36.86 955.499 36.22C955.499 35.1667 955.932 34.3667 956.799 33.82C957.665 33.26 958.925 32.94 960.579 32.86L962.519 32.78V32.02C962.519 30.9667 962.305 30.2267 961.879 29.8C961.465 29.36 960.845 29.14 960.019 29.14C959.472 29.14 958.945 29.2133 958.439 29.36C957.945 29.4933 957.445 29.6867 956.939 29.94L956.579 29.04C957.072 28.7867 957.619 28.58 958.219 28.42C958.819 28.26 959.439 28.18 960.079 28.18ZM960.699 33.7C959.352 33.7667 958.345 34.0067 957.679 34.42C957.012 34.82 956.679 35.4267 956.679 36.24C956.679 36.8933 956.885 37.3933 957.299 37.74C957.712 38.0733 958.272 38.24 958.979 38.24C960.112 38.24 960.979 37.9267 961.579 37.3C962.192 36.6733 962.505 35.7933 962.519 34.66V33.62L960.699 33.7ZM966.461 32.62C966.461 31.2333 966.575 30.0467 966.801 29.06C967.028 28.0733 967.375 27.2667 967.841 26.64C968.321 26 968.915 25.5267 969.621 25.22C970.341 24.82 971.175 24.5133 972.121 24.3C973.081 24.0733 974.148 23.8867 975.321 23.74L975.501 24.74C974.901 24.8067 974.328 24.8867 973.781 24.98C973.235 25.0733 972.721 25.18 972.241 25.3C971.775 25.4067 971.348 25.5267 970.961 25.66C970.588 25.7933 970.261 25.9467 969.981 26.12C969.635 26.2933 969.321 26.5267 969.041 26.82C968.775 27.1133 968.541 27.4733 968.341 27.9C968.155 28.3267 968.001 28.82 967.881 29.38C967.761 29.94 967.688 30.5667 967.661 31.26H967.741C967.981 30.86 968.288 30.5 968.661 30.18C969.035 29.8467 969.468 29.5867 969.961 29.4C970.468 29.2 971.021 29.1 971.621 29.1C972.515 29.1 973.268 29.2933 973.881 29.68C974.495 30.0533 974.955 30.6 975.261 31.32C975.581 32.0267 975.741 32.8933 975.741 33.92C975.741 35 975.561 35.94 975.201 36.74C974.855 37.5267 974.335 38.1333 973.641 38.56C972.961 38.9867 972.121 39.2 971.121 39.2C970.321 39.2 969.628 39.04 969.041 38.72C968.455 38.3867 967.968 37.9267 967.581 37.34C967.195 36.74 966.908 36.04 966.721 35.24C966.548 34.44 966.461 33.5667 966.461 32.62ZM971.201 38.22C971.961 38.22 972.581 38.06 973.061 37.74C973.555 37.4067 973.921 36.9267 974.161 36.3C974.415 35.66 974.541 34.8933 974.541 34C974.541 32.72 974.281 31.7467 973.761 31.08C973.255 30.4133 972.488 30.08 971.461 30.08C970.861 30.08 970.315 30.1933 969.821 30.42C969.341 30.6467 968.915 30.9533 968.541 31.34C968.168 31.7133 967.861 32.12 967.621 32.56C967.621 33.28 967.675 33.98 967.781 34.66C967.888 35.3267 968.068 35.9333 968.321 36.48C968.588 37.0133 968.955 37.44 969.421 37.76C969.901 38.0667 970.495 38.22 971.201 38.22ZM983.383 28.16C984.743 28.16 985.803 28.62 986.563 29.54C987.337 30.46 987.723 31.82 987.723 33.62C987.723 34.82 987.543 35.84 987.183 36.68C986.823 37.5067 986.31 38.1333 985.643 38.56C984.99 38.9867 984.203 39.2 983.283 39.2C982.657 39.2 982.11 39.1067 981.643 38.92C981.177 38.7333 980.79 38.4867 980.483 38.18C980.177 37.8733 979.937 37.5333 979.763 37.16H979.683C979.71 37.4933 979.73 37.86 979.743 38.26C979.757 38.6467 979.763 39.0067 979.763 39.34V43.72H978.623V28.36H979.563L979.703 30.36H979.763C979.937 29.9733 980.183 29.6133 980.503 29.28C980.823 28.9467 981.217 28.68 981.683 28.48C982.163 28.2667 982.73 28.16 983.383 28.16ZM983.223 29.14C982.437 29.14 981.79 29.3067 981.283 29.64C980.777 29.9733 980.397 30.4667 980.143 31.12C979.89 31.76 979.763 32.5533 979.763 33.5V33.7C979.763 34.7 979.883 35.54 980.123 36.22C980.377 36.8867 980.75 37.3867 981.243 37.72C981.75 38.0533 982.383 38.22 983.143 38.22C983.89 38.22 984.51 38.04 985.003 37.68C985.51 37.3067 985.89 36.78 986.143 36.1C986.41 35.4067 986.543 34.58 986.543 33.62C986.543 32.1667 986.27 31.06 985.723 30.3C985.177 29.5267 984.343 29.14 983.223 29.14ZM991.676 35.78C991.676 35.9133 991.676 36.0667 991.676 36.24C991.676 36.4133 991.669 36.5933 991.656 36.78C991.656 36.9533 991.649 37.1267 991.636 37.3C991.623 37.46 991.616 37.6133 991.616 37.76L997.836 28.36H999.236V39H998.156V31.58C998.156 31.38 998.156 31.16 998.156 30.92C998.156 30.68 998.163 30.44 998.176 30.2C998.189 29.96 998.196 29.7533 998.196 29.58L991.976 39H990.596V28.36H991.676V35.78ZM1003.72 31.98C1003.72 32.8333 1003.93 33.4533 1004.34 33.84C1004.77 34.2267 1005.4 34.42 1006.22 34.42C1006.93 34.42 1007.57 34.3067 1008.14 34.08C1008.73 33.8533 1009.3 33.5533 1009.84 33.18V28.36H1010.96V39H1009.84V34.12C1009.26 34.52 1008.67 34.8333 1008.08 35.06C1007.51 35.2733 1006.82 35.38 1006.02 35.38C1004.9 35.38 1004.05 35.0933 1003.46 34.52C1002.88 33.9333 1002.58 33.1267 1002.58 32.1V28.36H1003.72V31.98ZM1015.62 28.36V32.98H1022.14V28.36H1023.28V39H1022.14V33.96H1015.62V39H1014.48V28.36H1015.62ZM1030.57 28.18C1031.77 28.18 1032.66 28.4733 1033.25 29.06C1033.83 29.6467 1034.13 30.58 1034.13 31.86V39H1033.27L1033.07 37.2H1033.01C1032.75 37.6 1032.46 37.9533 1032.13 38.26C1031.81 38.5533 1031.41 38.7867 1030.95 38.96C1030.49 39.12 1029.93 39.2 1029.27 39.2C1028.6 39.2 1028.02 39.0867 1027.53 38.86C1027.03 38.62 1026.65 38.28 1026.39 37.84C1026.12 37.4 1025.99 36.86 1025.99 36.22C1025.99 35.1667 1026.42 34.3667 1027.29 33.82C1028.15 33.26 1029.41 32.94 1031.07 32.86L1033.01 32.78V32.02C1033.01 30.9667 1032.79 30.2267 1032.37 29.8C1031.95 29.36 1031.33 29.14 1030.51 29.14C1029.96 29.14 1029.43 29.2133 1028.93 29.36C1028.43 29.4933 1027.93 29.6867 1027.43 29.94L1027.07 29.04C1027.56 28.7867 1028.11 28.58 1028.71 28.42C1029.31 28.26 1029.93 28.18 1030.57 28.18ZM1031.19 33.7C1029.84 33.7667 1028.83 34.0067 1028.17 34.42C1027.5 34.82 1027.17 35.4267 1027.17 36.24C1027.17 36.8933 1027.37 37.3933 1027.79 37.74C1028.2 38.0733 1028.76 38.24 1029.47 38.24C1030.6 38.24 1031.47 37.9267 1032.07 37.3C1032.68 36.6733 1032.99 35.7933 1033.01 34.66V33.62L1031.19 33.7ZM1037.49 39H1036.15L1039.33 34.44C1038.77 34.36 1038.29 34.2 1037.89 33.96C1037.49 33.72 1037.18 33.3933 1036.95 32.98C1036.74 32.5667 1036.63 32.0667 1036.63 31.48C1036.63 30.44 1036.96 29.66 1037.63 29.14C1038.3 28.62 1039.16 28.36 1040.23 28.36H1044.69V39H1043.57V34.56H1040.49L1037.49 39ZM1037.75 31.48C1037.75 32.1867 1037.98 32.72 1038.43 33.08C1038.88 33.4267 1039.56 33.6 1040.47 33.6H1043.57V29.34H1040.35C1039.48 29.34 1038.83 29.5267 1038.39 29.9C1037.96 30.2733 1037.75 30.8 1037.75 31.48ZM1049.35 36.68L1047.27 41.92H1046.31L1047.79 36.68H1049.35ZM1056.44 37.9C1058.89 36.06 1060.78 34.4133 1062.12 32.96C1063.46 31.4933 1064.14 30.06 1064.14 28.66C1064.14 27.74 1063.9 27.0067 1063.44 26.46C1062.98 25.9 1062.24 25.62 1061.2 25.62C1060.18 25.62 1059.4 25.94 1058.84 26.58C1058.29 27.2067 1057.98 28.0467 1057.92 29.1H1056.56C1056.64 27.62 1057.09 26.4733 1057.92 25.66C1058.76 24.8333 1059.85 24.42 1061.2 24.42C1062.49 24.42 1063.54 24.7867 1064.34 25.52C1065.14 26.24 1065.54 27.2667 1065.54 28.6C1065.54 30.2133 1064.86 31.78 1063.52 33.3C1062.18 34.8067 1060.54 36.28 1058.58 37.72H1065.98V38.9H1056.44V37.9ZM1067.48 25.92V24.66H1070.88V39H1069.46V25.92H1067.48ZM1080.76 28.36V29.34H1075.6V39H1074.46V28.36H1080.76ZM1084.04 36.68L1081.96 41.92H1081L1082.48 36.68H1084.04ZM1090.73 25.92V24.66H1094.13V39H1092.71V25.92H1090.73ZM1104.33 31V32.18H1096.55V31H1104.33ZM1115.76 24.08C1115.72 24.7067 1115.56 25.2333 1115.3 25.66C1115.04 26.0733 1114.68 26.38 1114.2 26.58C1113.72 26.78 1113.12 26.88 1112.42 26.88C1111.71 26.88 1111.12 26.78 1110.64 26.58C1110.17 26.38 1109.82 26.0733 1109.58 25.66C1109.35 25.2467 1109.21 24.72 1109.16 24.08H1110.24C1110.3 24.8 1110.5 25.3067 1110.84 25.6C1111.18 25.8933 1111.72 26.04 1112.44 26.04C1113.12 26.04 1113.64 25.8933 1114.02 25.6C1114.39 25.3067 1114.6 24.8 1114.66 24.08H1115.76ZM1109.16 35.78C1109.16 35.9133 1109.16 36.0667 1109.16 36.24C1109.16 36.4133 1109.15 36.5933 1109.14 36.78C1109.14 36.9533 1109.13 37.1267 1109.12 37.3C1109.1 37.46 1109.1 37.6133 1109.1 37.76L1115.32 28.36H1116.72V39H1115.64V31.58C1115.64 31.38 1115.64 31.16 1115.64 30.92C1115.64 30.68 1115.64 30.44 1115.66 30.2C1115.67 29.96 1115.68 29.7533 1115.68 29.58L1109.46 39H1108.08V28.36H1109.16V35.78ZM1127.55 39.2C1126.98 39.2 1126.47 39.1467 1126.03 39.04C1125.59 38.9467 1125.19 38.82 1124.83 38.66V37.64C1125.23 37.8 1125.65 37.9333 1126.09 38.04C1126.55 38.1467 1127.04 38.2 1127.57 38.2C1128.44 38.2 1129.16 38.0333 1129.73 37.7C1130.32 37.3533 1130.77 36.8667 1131.07 36.24C1131.39 35.6 1131.57 34.8533 1131.61 34H1125.63V33.04H1131.59C1131.54 31.7867 1131.2 30.8267 1130.57 30.16C1129.96 29.4933 1129.03 29.16 1127.77 29.16C1127.4 29.16 1126.98 29.2067 1126.51 29.3C1126.06 29.38 1125.65 29.5 1125.27 29.66L1124.97 28.72C1125.36 28.5467 1125.8 28.4133 1126.29 28.32C1126.79 28.2133 1127.29 28.16 1127.79 28.16C1128.83 28.16 1129.73 28.36 1130.47 28.76C1131.22 29.1467 1131.79 29.74 1132.19 30.54C1132.59 31.34 1132.79 32.3533 1132.79 33.58C1132.79 34.7267 1132.59 35.7267 1132.17 36.58C1131.77 37.42 1131.19 38.0667 1130.41 38.52C1129.64 38.9733 1128.69 39.2 1127.55 39.2ZM1142.24 29.34H1138.66V39H1137.54V29.34H1133.98V28.36H1142.24V29.34ZM1148.16 28.18C1149.36 28.18 1150.26 28.4733 1150.84 29.06C1151.43 29.6467 1151.72 30.58 1151.72 31.86V39H1150.86L1150.66 37.2H1150.6C1150.35 37.6 1150.06 37.9533 1149.72 38.26C1149.4 38.5533 1149.01 38.7867 1148.54 38.96C1148.09 39.12 1147.53 39.2 1146.86 39.2C1146.2 39.2 1145.62 39.0867 1145.12 38.86C1144.63 38.62 1144.25 38.28 1143.98 37.84C1143.72 37.4 1143.58 36.86 1143.58 36.22C1143.58 35.1667 1144.02 34.3667 1144.88 33.82C1145.75 33.26 1147.01 32.94 1148.66 32.86L1150.6 32.78V32.02C1150.6 30.9667 1150.39 30.2267 1149.96 29.8C1149.55 29.36 1148.93 29.14 1148.1 29.14C1147.56 29.14 1147.03 29.2133 1146.52 29.36C1146.03 29.4933 1145.53 29.6867 1145.02 29.94L1144.66 29.04C1145.16 28.7867 1145.7 28.58 1146.3 28.42C1146.9 28.26 1147.52 28.18 1148.16 28.18ZM1148.78 33.7C1147.44 33.7667 1146.43 34.0067 1145.76 34.42C1145.1 34.82 1144.76 35.4267 1144.76 36.24C1144.76 36.8933 1144.97 37.3933 1145.38 37.74C1145.8 38.0733 1146.36 38.24 1147.06 38.24C1148.2 38.24 1149.06 37.9267 1149.66 37.3C1150.28 36.6733 1150.59 35.7933 1150.6 34.66V33.62L1148.78 33.7ZM1166.51 28.36L1161.93 33.56L1166.87 39H1165.53L1160.71 33.62V39H1159.63V33.62L1154.81 39H1153.47L1158.41 33.56L1153.81 28.36H1155.11L1159.63 33.54V28.36H1160.71V33.54L1165.23 28.36H1166.51ZM1169.34 30.38C1169.05 30.38 1168.8 30.28 1168.6 30.08C1168.41 29.88 1168.32 29.6333 1168.32 29.34C1168.32 29.0467 1168.41 28.8067 1168.6 28.62C1168.8 28.42 1169.05 28.32 1169.34 28.32C1169.62 28.32 1169.85 28.42 1170.04 28.62C1170.24 28.8067 1170.34 29.0467 1170.34 29.34C1170.34 29.6333 1170.24 29.88 1170.04 30.08C1169.85 30.28 1169.62 30.38 1169.34 30.38ZM1170.36 36.68L1168.28 41.92H1167.32L1168.8 36.68H1170.36ZM886.84 60.96C886.84 61.6267 886.66 62.1533 886.3 62.54C885.94 62.9267 885.467 63.1933 884.88 63.34V63.4C885.573 63.5067 886.14 63.7667 886.58 64.18C887.02 64.58 887.24 65.1733 887.24 65.96C887.24 66.4267 887.16 66.8467 887 67.22C886.84 67.5933 886.6 67.9133 886.28 68.18C885.96 68.4467 885.553 68.6533 885.06 68.8C884.567 68.9333 883.98 69 883.3 69H878.76V58.36H883.2C883.987 58.36 884.647 58.46 885.18 58.66C885.727 58.8467 886.14 59.1333 886.42 59.52C886.7 59.9067 886.84 60.3867 886.84 60.96ZM886.06 65.96C886.06 65.2267 885.807 64.7 885.3 64.38C884.807 64.06 884.06 63.9 883.06 63.9H879.9V68.04H883.14C884.113 68.04 884.84 67.8733 885.32 67.54C885.813 67.2067 886.06 66.68 886.06 65.96ZM885.68 61.08C885.68 60.52 885.487 60.0933 885.1 59.8C884.713 59.4933 884.053 59.34 883.12 59.34H879.9V62.92H882.98C883.9 62.92 884.58 62.7667 885.02 62.46C885.46 62.1533 885.68 61.6933 885.68 61.08ZM892.687 63.54L888.987 58.36H890.307L893.367 62.76L896.447 58.36H897.747L894.067 63.54L897.967 69H896.647L893.367 64.32L890.107 69H888.807L892.687 63.54ZM908.715 63.68C908.715 64.5067 908.608 65.26 908.395 65.94C908.195 66.6067 907.888 67.1867 907.475 67.68C907.075 68.16 906.575 68.5333 905.975 68.8C905.375 69.0667 904.688 69.2 903.915 69.2C903.181 69.2 902.521 69.0733 901.935 68.82C901.361 68.5533 900.868 68.18 900.455 67.7C900.041 67.2067 899.728 66.62 899.515 65.94C899.301 65.26 899.195 64.5067 899.195 63.68C899.195 62.52 899.381 61.5333 899.755 60.72C900.141 59.8933 900.695 59.26 901.415 58.82C902.148 58.38 903.015 58.16 904.015 58.16C905.028 58.16 905.881 58.3933 906.575 58.86C907.281 59.3133 907.815 59.9533 908.175 60.78C908.535 61.6067 908.715 62.5733 908.715 63.68ZM900.375 63.68C900.375 64.5867 900.501 65.3867 900.755 66.08C901.008 66.76 901.401 67.2867 901.935 67.66C902.468 68.0333 903.135 68.22 903.935 68.22C904.761 68.22 905.441 68.0333 905.975 67.66C906.508 67.2733 906.901 66.74 907.155 66.06C907.408 65.3667 907.535 64.5733 907.535 63.68C907.535 62.7867 907.415 62 907.175 61.32C906.935 60.64 906.555 60.1067 906.035 59.72C905.515 59.3333 904.835 59.14 903.995 59.14C902.781 59.14 901.875 59.54 901.275 60.34C900.675 61.14 900.375 62.2533 900.375 63.68ZM918.992 58.36V68.02H920.452V72.62H919.332V69H911.352V72.62H910.252V68.02H910.992C911.592 67.18 912.092 66.2533 912.492 65.24C912.892 64.2267 913.198 63.14 913.412 61.98C913.625 60.82 913.738 59.6133 913.752 58.36H918.992ZM914.792 59.3C914.738 60.42 914.605 61.5067 914.392 62.56C914.178 63.6 913.892 64.58 913.532 65.5C913.172 66.42 912.732 67.26 912.212 68.02H917.892V59.3H914.792ZM932.415 69.2C931.375 69.2 930.488 68.9867 929.755 68.56C929.035 68.12 928.481 67.4933 928.095 66.68C927.721 65.8667 927.535 64.8867 927.535 63.74C927.535 62.54 927.748 61.5267 928.175 60.7C928.615 59.8733 929.215 59.2467 929.975 58.82C930.735 58.38 931.628 58.16 932.655 58.16C933.161 58.16 933.635 58.2133 934.075 58.32C934.528 58.4133 934.928 58.54 935.275 58.7L934.975 59.66C934.615 59.5133 934.228 59.4 933.815 59.32C933.401 59.2267 933.008 59.18 932.635 59.18C931.781 59.18 931.061 59.3667 930.475 59.74C929.901 60.1 929.461 60.62 929.155 61.3C928.861 61.98 928.715 62.7933 928.715 63.74C928.715 64.62 928.841 65.4 929.095 66.08C929.361 66.7467 929.768 67.2667 930.315 67.64C930.861 68.0133 931.561 68.2 932.415 68.2C932.935 68.2 933.421 68.1467 933.875 68.04C934.341 67.9333 934.768 67.7933 935.155 67.62V68.66C934.808 68.8067 934.408 68.9333 933.955 69.04C933.501 69.1467 932.988 69.2 932.415 69.2ZM946.566 63.68C946.566 64.5067 946.46 65.26 946.246 65.94C946.046 66.6067 945.74 67.1867 945.326 67.68C944.926 68.16 944.426 68.5333 943.826 68.8C943.226 69.0667 942.54 69.2 941.766 69.2C941.033 69.2 940.373 69.0733 939.786 68.82C939.213 68.5533 938.72 68.18 938.306 67.7C937.893 67.2067 937.58 66.62 937.366 65.94C937.153 65.26 937.046 64.5067 937.046 63.68C937.046 62.52 937.233 61.5333 937.606 60.72C937.993 59.8933 938.546 59.26 939.266 58.82C940 58.38 940.866 58.16 941.866 58.16C942.88 58.16 943.733 58.3933 944.426 58.86C945.133 59.3133 945.666 59.9533 946.026 60.78C946.386 61.6067 946.566 62.5733 946.566 63.68ZM938.226 63.68C938.226 64.5867 938.353 65.3867 938.606 66.08C938.86 66.76 939.253 67.2867 939.786 67.66C940.32 68.0333 940.986 68.22 941.786 68.22C942.613 68.22 943.293 68.0333 943.826 67.66C944.36 67.2733 944.753 66.74 945.006 66.06C945.26 65.3667 945.386 64.5733 945.386 63.68C945.386 62.7867 945.266 62 945.026 61.32C944.786 60.64 944.406 60.1067 943.886 59.72C943.366 59.3333 942.686 59.14 941.846 59.14C940.633 59.14 939.726 59.54 939.126 60.34C938.526 61.14 938.226 62.2533 938.226 63.68ZM959.211 69.2C958.171 69.2 957.285 68.9867 956.551 68.56C955.831 68.12 955.278 67.4933 954.891 66.68C954.518 65.8667 954.331 64.8867 954.331 63.74C954.331 62.54 954.545 61.5267 954.971 60.7C955.411 59.8733 956.011 59.2467 956.771 58.82C957.531 58.38 958.425 58.16 959.451 58.16C959.958 58.16 960.431 58.2133 960.871 58.32C961.325 58.4133 961.725 58.54 962.071 58.7L961.771 59.66C961.411 59.5133 961.025 59.4 960.611 59.32C960.198 59.2267 959.805 59.18 959.431 59.18C958.578 59.18 957.858 59.3667 957.271 59.74C956.698 60.1 956.258 60.62 955.951 61.3C955.658 61.98 955.511 62.7933 955.511 63.74C955.511 64.62 955.638 65.4 955.891 66.08C956.158 66.7467 956.565 67.2667 957.111 67.64C957.658 68.0133 958.358 68.2 959.211 68.2C959.731 68.2 960.218 68.1467 960.671 68.04C961.138 67.9333 961.565 67.7933 961.951 67.62V68.66C961.605 68.8067 961.205 68.9333 960.751 69.04C960.298 69.1467 959.785 69.2 959.211 69.2ZM971.343 59.34H967.763V69H966.643V59.34H963.083V58.36H971.343V59.34ZM982.211 63.68C982.211 64.5067 982.104 65.26 981.891 65.94C981.691 66.6067 981.384 67.1867 980.971 67.68C980.571 68.16 980.071 68.5333 979.471 68.8C978.871 69.0667 978.184 69.2 977.411 69.2C976.677 69.2 976.017 69.0733 975.431 68.82C974.857 68.5533 974.364 68.18 973.951 67.7C973.537 67.2067 973.224 66.62 973.011 65.94C972.797 65.26 972.691 64.5067 972.691 63.68C972.691 62.52 972.877 61.5333 973.251 60.72C973.637 59.8933 974.191 59.26 974.911 58.82C975.644 58.38 976.511 58.16 977.511 58.16C978.524 58.16 979.377 58.3933 980.071 58.86C980.777 59.3133 981.311 59.9533 981.671 60.78C982.031 61.6067 982.211 62.5733 982.211 63.68ZM973.871 63.68C973.871 64.5867 973.997 65.3867 974.251 66.08C974.504 66.76 974.897 67.2867 975.431 67.66C975.964 68.0333 976.631 68.22 977.431 68.22C978.257 68.22 978.937 68.0333 979.471 67.66C980.004 67.2733 980.397 66.74 980.651 66.06C980.904 65.3667 981.031 64.5733 981.031 63.68C981.031 62.7867 980.911 62 980.671 61.32C980.431 60.64 980.051 60.1067 979.531 59.72C979.011 59.3333 978.331 59.14 977.491 59.14C976.277 59.14 975.371 59.54 974.771 60.34C974.171 61.14 973.871 62.2533 973.871 63.68ZM989.868 58.16C991.228 58.16 992.288 58.62 993.048 59.54C993.821 60.46 994.208 61.82 994.208 63.62C994.208 64.82 994.028 65.84 993.668 66.68C993.308 67.5067 992.794 68.1333 992.128 68.56C991.474 68.9867 990.688 69.2 989.768 69.2C989.141 69.2 988.594 69.1067 988.128 68.92C987.661 68.7333 987.274 68.4867 986.968 68.18C986.661 67.8733 986.421 67.5333 986.248 67.16H986.168C986.194 67.4933 986.214 67.86 986.228 68.26C986.241 68.6467 986.248 69.0067 986.248 69.34V73.72H985.108V58.36H986.048L986.188 60.36H986.248C986.421 59.9733 986.668 59.6133 986.988 59.28C987.308 58.9467 987.701 58.68 988.168 58.48C988.648 58.2667 989.214 58.16 989.868 58.16ZM989.708 59.14C988.921 59.14 988.274 59.3067 987.768 59.64C987.261 59.9733 986.881 60.4667 986.628 61.12C986.374 61.76 986.248 62.5533 986.248 63.5V63.7C986.248 64.7 986.368 65.54 986.608 66.22C986.861 66.8867 987.234 67.3867 987.728 67.72C988.234 68.0533 988.868 68.22 989.628 68.22C990.374 68.22 990.994 68.04 991.488 67.68C991.994 67.3067 992.374 66.78 992.628 66.1C992.894 65.4067 993.028 64.58 993.028 63.62C993.028 62.1667 992.754 61.06 992.208 60.3C991.661 59.5267 990.828 59.14 989.708 59.14ZM1005.98 63.68C1005.98 64.5067 1005.87 65.26 1005.66 65.94C1005.46 66.6067 1005.15 67.1867 1004.74 67.68C1004.34 68.16 1003.84 68.5333 1003.24 68.8C1002.64 69.0667 1001.95 69.2 1001.18 69.2C1000.45 69.2 999.787 69.0733 999.2 68.82C998.627 68.5533 998.134 68.18 997.72 67.7C997.307 67.2067 996.994 66.62 996.78 65.94C996.567 65.26 996.46 64.5067 996.46 63.68C996.46 62.52 996.647 61.5333 997.02 60.72C997.407 59.8933 997.96 59.26 998.68 58.82C999.414 58.38 1000.28 58.16 1001.28 58.16C1002.29 58.16 1003.15 58.3933 1003.84 58.86C1004.55 59.3133 1005.08 59.9533 1005.44 60.78C1005.8 61.6067 1005.98 62.5733 1005.98 63.68ZM997.64 63.68C997.64 64.5867 997.767 65.3867 998.02 66.08C998.274 66.76 998.667 67.2867 999.2 67.66C999.734 68.0333 1000.4 68.22 1001.2 68.22C1002.03 68.22 1002.71 68.0333 1003.24 67.66C1003.77 67.2733 1004.17 66.74 1004.42 66.06C1004.67 65.3667 1004.8 64.5733 1004.8 63.68C1004.8 62.7867 1004.68 62 1004.44 61.32C1004.2 60.64 1003.82 60.1067 1003.3 59.72C1002.78 59.3333 1002.1 59.14 1001.26 59.14C1000.05 59.14 999.14 59.54 998.54 60.34C997.94 61.14 997.64 62.2533 997.64 63.68ZM1010.02 58.36V62.98H1016.54V58.36H1017.68V69H1016.54V63.96H1010.02V69H1008.88V58.36H1010.02ZM1021.2 69V58.36H1022.34V62.82H1025.8C1026.65 62.82 1027.35 62.94 1027.9 63.18C1028.45 63.4067 1028.85 63.7467 1029.1 64.2C1029.37 64.64 1029.5 65.1733 1029.5 65.8C1029.5 66.4667 1029.36 67.04 1029.08 67.52C1028.81 68 1028.39 68.3667 1027.82 68.62C1027.25 68.8733 1026.51 69 1025.62 69H1021.2ZM1025.5 68.04C1026.46 68.04 1027.18 67.8667 1027.66 67.52C1028.14 67.16 1028.38 66.6 1028.38 65.84C1028.38 65.1333 1028.15 64.62 1027.7 64.3C1027.25 63.9667 1026.57 63.8 1025.66 63.8H1022.34V68.04H1025.5ZM1031.22 69V58.36H1032.36V69H1031.22ZM1039.62 58.36H1040.84L1043.36 64.98C1043.5 65.3667 1043.64 65.7267 1043.76 66.06C1043.88 66.3933 1043.98 66.7067 1044.08 67C1044.17 67.28 1044.25 67.54 1044.32 67.78H1044.38C1044.47 67.4733 1044.6 67.08 1044.76 66.6C1044.92 66.1067 1045.1 65.5733 1045.32 65L1047.8 58.36H1049.02L1044.22 70.9C1043.98 71.5133 1043.71 72.04 1043.42 72.48C1043.12 72.92 1042.78 73.2533 1042.38 73.48C1041.98 73.72 1041.5 73.84 1040.94 73.84C1040.68 73.84 1040.45 73.82 1040.24 73.78C1040.04 73.7533 1039.84 73.7133 1039.66 73.66V72.7C1039.83 72.74 1040 72.7733 1040.18 72.8C1040.36 72.84 1040.57 72.86 1040.8 72.86C1041.17 72.86 1041.5 72.78 1041.78 72.62C1042.06 72.4733 1042.3 72.24 1042.52 71.92C1042.73 71.6133 1042.92 71.2267 1043.1 70.76L1043.8 68.96L1039.62 58.36ZM1057.86 69H1056.72V59.34H1053.12C1052.99 61.02 1052.83 62.4733 1052.66 63.7C1052.49 64.9267 1052.26 65.94 1051.98 66.74C1051.71 67.54 1051.37 68.1333 1050.96 68.52C1050.56 68.9067 1050.07 69.1 1049.5 69.1C1049.33 69.1 1049.17 69.0933 1049.04 69.08C1048.91 69.0667 1048.79 69.0467 1048.7 69.02V68.1C1048.78 68.1267 1048.87 68.1467 1048.96 68.16C1049.05 68.1733 1049.17 68.18 1049.32 68.18C1049.64 68.18 1049.93 68.0533 1050.18 67.8C1050.45 67.5467 1050.68 67.1667 1050.88 66.66C1051.08 66.1533 1051.25 65.5133 1051.4 64.74C1051.56 63.9533 1051.69 63.0333 1051.8 61.98C1051.92 60.9133 1052.03 59.7067 1052.12 58.36H1057.86V69ZM1062.46 65.78C1062.46 65.9133 1062.46 66.0667 1062.46 66.24C1062.46 66.4133 1062.45 66.5933 1062.44 66.78C1062.44 66.9533 1062.43 67.1267 1062.42 67.3C1062.4 67.46 1062.4 67.6133 1062.4 67.76L1068.62 58.36H1070.02V69H1068.94V61.58C1068.94 61.38 1068.94 61.16 1068.94 60.92C1068.94 60.68 1068.94 60.44 1068.96 60.2C1068.97 59.96 1068.98 59.7533 1068.98 59.58L1062.76 69H1061.38V58.36H1062.46V65.78ZM1083.41 72.62H1082.29V69H1073.55V58.36H1074.69V68.02H1080.83V58.36H1081.97V68.02H1083.41V72.62ZM1085.62 69V58.36H1086.76V62.82H1090.22C1091.07 62.82 1091.77 62.94 1092.32 63.18C1092.86 63.4067 1093.26 63.7467 1093.52 64.2C1093.78 64.64 1093.92 65.1733 1093.92 65.8C1093.92 66.4667 1093.78 67.04 1093.5 67.52C1093.23 68 1092.81 68.3667 1092.24 68.62C1091.66 68.8733 1090.93 69 1090.04 69H1085.62ZM1089.92 68.04C1090.88 68.04 1091.6 67.8667 1092.08 67.52C1092.56 67.16 1092.8 66.6 1092.8 65.84C1092.8 65.1333 1092.57 64.62 1092.12 64.3C1091.66 63.9667 1090.98 63.8 1090.08 63.8H1086.76V68.04H1089.92ZM1095.64 69V58.36H1096.78V69H1095.64ZM1112.23 69L1107.09 55.94H1107.03C1107.06 56.18 1107.07 56.4533 1107.07 56.76C1107.08 57.0533 1107.09 57.3667 1107.09 57.7C1107.1 58.02 1107.11 58.3533 1107.11 58.7V69H1106.03V54.72H1107.77L1112.69 67.24H1112.77L1117.75 54.72H1119.45V69H1118.31V58.58C1118.31 58.2867 1118.31 57.9867 1118.31 57.68C1118.32 57.3733 1118.34 57.0733 1118.35 56.78C1118.36 56.4867 1118.38 56.2133 1118.39 55.96H1118.33L1113.17 69H1112.23ZM1126.99 58.18C1128.19 58.18 1129.09 58.4733 1129.67 59.06C1130.26 59.6467 1130.55 60.58 1130.55 61.86V69H1129.69L1129.49 67.2H1129.43C1129.18 67.6 1128.89 67.9533 1128.55 68.26C1128.23 68.5533 1127.84 68.7867 1127.37 68.96C1126.92 69.12 1126.36 69.2 1125.69 69.2C1125.03 69.2 1124.45 69.0867 1123.95 68.86C1123.46 68.62 1123.08 68.28 1122.81 67.84C1122.55 67.4 1122.41 66.86 1122.41 66.22C1122.41 65.1667 1122.85 64.3667 1123.71 63.82C1124.58 63.26 1125.84 62.94 1127.49 62.86L1129.43 62.78V62.02C1129.43 60.9667 1129.22 60.2267 1128.79 59.8C1128.38 59.36 1127.76 59.14 1126.93 59.14C1126.39 59.14 1125.86 59.2133 1125.35 59.36C1124.86 59.4933 1124.36 59.6867 1123.85 59.94L1123.49 59.04C1123.99 58.7867 1124.53 58.58 1125.13 58.42C1125.73 58.26 1126.35 58.18 1126.99 58.18ZM1127.61 63.7C1126.27 63.7667 1125.26 64.0067 1124.59 64.42C1123.93 64.82 1123.59 65.4267 1123.59 66.24C1123.59 66.8933 1123.8 67.3933 1124.21 67.74C1124.63 68.0733 1125.19 68.24 1125.89 68.24C1127.03 68.24 1127.89 67.9267 1128.49 67.3C1129.11 66.6733 1129.42 65.7933 1129.43 64.66V63.62L1127.61 63.7ZM1139.84 58.36H1141.14L1136.38 63.52L1141.44 69H1140.06L1135.1 63.62V69H1133.96V58.36H1135.1V63.54L1139.84 58.36ZM1147.17 58.18C1148.37 58.18 1149.26 58.4733 1149.85 59.06C1150.44 59.6467 1150.73 60.58 1150.73 61.86V69H1149.87L1149.67 67.2H1149.61C1149.36 67.6 1149.06 67.9533 1148.73 68.26C1148.41 68.5533 1148.02 68.7867 1147.55 68.96C1147.1 69.12 1146.54 69.2 1145.87 69.2C1145.2 69.2 1144.62 69.0867 1144.13 68.86C1143.64 68.62 1143.26 68.28 1142.99 67.84C1142.72 67.4 1142.59 66.86 1142.59 66.22C1142.59 65.1667 1143.02 64.3667 1143.89 63.82C1144.76 63.26 1146.02 62.94 1147.67 62.86L1149.61 62.78V62.02C1149.61 60.9667 1149.4 60.2267 1148.97 59.8C1148.56 59.36 1147.94 59.14 1147.11 59.14C1146.56 59.14 1146.04 59.2133 1145.53 59.36C1145.04 59.4933 1144.54 59.6867 1144.03 59.94L1143.67 59.04C1144.16 58.7867 1144.71 58.58 1145.31 58.42C1145.91 58.26 1146.53 58.18 1147.17 58.18ZM1147.79 63.7C1146.44 63.7667 1145.44 64.0067 1144.77 64.42C1144.1 64.82 1143.77 65.4267 1143.77 66.24C1143.77 66.8933 1143.98 67.3933 1144.39 67.74C1144.8 68.0733 1145.36 68.24 1146.07 68.24C1147.2 68.24 1148.07 67.9267 1148.67 67.3C1149.28 66.6733 1149.6 65.7933 1149.61 64.66V63.62L1147.79 63.7ZM1158.89 58.16C1160.25 58.16 1161.31 58.62 1162.07 59.54C1162.84 60.46 1163.23 61.82 1163.23 63.62C1163.23 64.82 1163.05 65.84 1162.69 66.68C1162.33 67.5067 1161.82 68.1333 1161.15 68.56C1160.5 68.9867 1159.71 69.2 1158.79 69.2C1158.16 69.2 1157.62 69.1067 1157.15 68.92C1156.68 68.7333 1156.3 68.4867 1155.99 68.18C1155.68 67.8733 1155.44 67.5333 1155.27 67.16H1155.19C1155.22 67.4933 1155.24 67.86 1155.25 68.26C1155.26 68.6467 1155.27 69.0067 1155.27 69.34V73.72H1154.13V58.36H1155.07L1155.21 60.36H1155.27C1155.44 59.9733 1155.69 59.6133 1156.01 59.28C1156.33 58.9467 1156.72 58.68 1157.19 58.48C1157.67 58.2667 1158.24 58.16 1158.89 58.16ZM1158.73 59.14C1157.94 59.14 1157.3 59.3067 1156.79 59.64C1156.28 59.9733 1155.9 60.4667 1155.65 61.12C1155.4 61.76 1155.27 62.5533 1155.27 63.5V63.7C1155.27 64.7 1155.39 65.54 1155.63 66.22C1155.88 66.8867 1156.26 67.3867 1156.75 67.72C1157.26 68.0533 1157.89 68.22 1158.65 68.22C1159.4 68.22 1160.02 68.04 1160.51 67.68C1161.02 67.3067 1161.4 66.78 1161.65 66.1C1161.92 65.4067 1162.05 64.58 1162.05 63.62C1162.05 62.1667 1161.78 61.06 1161.23 60.3C1160.68 59.5267 1159.85 59.14 1158.73 59.14ZM1170.12 58.16C1171.04 58.16 1171.8 58.3733 1172.4 58.8C1173.02 59.2133 1173.48 59.7867 1173.78 60.52C1174.1 61.2533 1174.26 62.1 1174.26 63.06V63.82H1166.66C1166.66 65.2467 1166.99 66.3333 1167.64 67.08C1168.31 67.8267 1169.25 68.2 1170.46 68.2C1171.13 68.2 1171.71 68.1467 1172.2 68.04C1172.7 67.9333 1173.24 67.7467 1173.82 67.48V68.52C1173.29 68.76 1172.76 68.9333 1172.24 69.04C1171.72 69.1467 1171.12 69.2 1170.42 69.2C1169.37 69.2 1168.47 68.98 1167.72 68.54C1166.99 68.1 1166.43 67.4733 1166.04 66.66C1165.67 65.8333 1165.48 64.8733 1165.48 63.78C1165.48 62.6867 1165.66 61.72 1166.02 60.88C1166.38 60.04 1166.91 59.38 1167.6 58.9C1168.3 58.4067 1169.14 58.16 1170.12 58.16ZM1170.12 59.12C1169.14 59.12 1168.34 59.4467 1167.74 60.1C1167.14 60.74 1166.79 61.6667 1166.68 62.88H1173.08C1173.08 62.1333 1172.98 61.48 1172.76 60.92C1172.55 60.36 1172.22 59.92 1171.78 59.6C1171.36 59.28 1170.8 59.12 1170.12 59.12ZM1178.28 58.36V62.98H1184.8V58.36H1185.94V69H1184.8V63.96H1178.28V69H1177.14V58.36H1178.28ZM1195.34 58.36H1196.64L1191.88 63.52L1196.94 69H1195.56L1190.6 63.62V69H1189.46V58.36H1190.6V63.54L1195.34 58.36ZM1207.43 63.68C1207.43 64.5067 1207.32 65.26 1207.11 65.94C1206.91 66.6067 1206.6 67.1867 1206.19 67.68C1205.79 68.16 1205.29 68.5333 1204.69 68.8C1204.09 69.0667 1203.4 69.2 1202.63 69.2C1201.89 69.2 1201.23 69.0733 1200.65 68.82C1200.07 68.5533 1199.58 68.18 1199.17 67.7C1198.75 67.2067 1198.44 66.62 1198.23 65.94C1198.01 65.26 1197.91 64.5067 1197.91 63.68C1197.91 62.52 1198.09 61.5333 1198.47 60.72C1198.85 59.8933 1199.41 59.26 1200.13 58.82C1200.86 58.38 1201.73 58.16 1202.73 58.16C1203.74 58.16 1204.59 58.3933 1205.29 58.86C1205.99 59.3133 1206.53 59.9533 1206.89 60.78C1207.25 61.6067 1207.43 62.5733 1207.43 63.68ZM1199.09 63.68C1199.09 64.5867 1199.21 65.3867 1199.47 66.08C1199.72 66.76 1200.11 67.2867 1200.65 67.66C1201.18 68.0333 1201.85 68.22 1202.65 68.22C1203.47 68.22 1204.15 68.0333 1204.69 67.66C1205.22 67.2733 1205.61 66.74 1205.87 66.06C1206.12 65.3667 1206.25 64.5733 1206.25 63.68C1206.25 62.7867 1206.13 62 1205.89 61.32C1205.65 60.64 1205.27 60.1067 1204.75 59.72C1204.23 59.3333 1203.55 59.14 1202.71 59.14C1201.49 59.14 1200.59 59.54 1199.99 60.34C1199.39 61.14 1199.09 62.2533 1199.09 63.68ZM1210.4 69.1C1210.11 69.1 1209.86 69 1209.66 68.8C1209.48 68.6 1209.38 68.3533 1209.38 68.06C1209.38 67.7667 1209.48 67.5267 1209.66 67.34C1209.86 67.14 1210.11 67.04 1210.4 67.04C1210.68 67.04 1210.92 67.14 1211.1 67.34C1211.3 67.5267 1211.4 67.7667 1211.4 68.06C1211.4 68.3533 1211.3 68.6 1211.1 68.8C1210.92 69 1210.68 69.1 1210.4 69.1Z" fill="white"/>
<path d="M466.66 55.2H462.2V59.7H460.9V55.2H456.46V54H460.9V49.5H462.2V54H466.66V55.2ZM477.985 48.76L472.405 62H470.985L476.625 48.88H468.625V47.68H477.985V48.76ZM490.178 65.72C488.924 64.48 487.938 62.8933 487.218 60.96C486.498 59.0133 486.138 56.9 486.138 54.62C486.138 52.3133 486.511 50.1733 487.258 48.2C488.004 46.2267 489.051 44.6 490.398 43.32H491.858V43.46C490.431 44.86 489.344 46.5333 488.598 48.48C487.864 50.4267 487.498 52.4733 487.498 54.62C487.498 56.74 487.851 58.7467 488.558 60.64C489.264 62.5333 490.298 64.18 491.658 65.58V65.72H490.178ZM495.816 58.18C495.963 59.0467 496.296 59.7133 496.816 60.18C497.336 60.6467 498.05 60.88 498.956 60.88C500.21 60.88 501.136 60.3933 501.736 59.42C502.35 58.4333 502.63 56.8067 502.576 54.54C502.323 55.2733 501.836 55.8533 501.116 56.28C500.41 56.6933 499.596 56.9 498.676 56.9C497.276 56.9 496.15 56.48 495.296 55.64C494.456 54.8 494.036 53.6333 494.036 52.14C494.036 51.2467 494.21 50.44 494.556 49.72C494.903 49 495.43 48.4333 496.136 48.02C496.843 47.6067 497.71 47.4 498.736 47.4C500.63 47.4 501.95 48.02 502.696 49.26C503.443 50.4867 503.816 52.2533 503.816 54.56C503.816 57.0533 503.443 58.9267 502.696 60.18C501.963 61.4333 500.696 62.06 498.896 62.06C497.576 62.06 496.55 61.7067 495.816 61C495.083 60.28 494.65 59.34 494.516 58.18H495.816ZM498.896 55.7C499.523 55.7 500.096 55.5733 500.616 55.32C501.15 55.0533 501.576 54.6667 501.896 54.16C502.216 53.6533 502.376 53.0467 502.376 52.34C502.376 51.2467 502.063 50.3467 501.436 49.64C500.823 48.9333 499.936 48.58 498.776 48.58C497.75 48.58 496.923 48.9 496.296 49.54C495.683 50.18 495.376 51.0333 495.376 52.1C495.376 53.22 495.683 54.1 496.296 54.74C496.91 55.38 497.776 55.7 498.896 55.7ZM515.496 48.86H508.176V53.98C508.51 53.5133 508.996 53.1333 509.636 52.84C510.276 52.5333 510.97 52.38 511.716 52.38C512.81 52.38 513.703 52.6067 514.396 53.06C515.09 53.5 515.59 54.08 515.896 54.8C516.203 55.5067 516.356 56.2667 516.356 57.08C516.356 58.0133 516.176 58.86 515.816 59.62C515.47 60.3667 514.93 60.96 514.196 61.4C513.476 61.84 512.576 62.06 511.496 62.06C510.123 62.06 509.01 61.7067 508.156 61C507.303 60.28 506.783 59.3133 506.596 58.1H507.976C508.15 58.98 508.55 59.66 509.176 60.14C509.803 60.62 510.576 60.86 511.496 60.86C512.656 60.86 513.53 60.52 514.116 59.84C514.716 59.1467 515.016 58.2333 515.016 57.1C515.016 55.9933 514.716 55.1333 514.116 54.52C513.516 53.8933 512.656 53.58 511.536 53.58C510.763 53.58 510.083 53.76 509.496 54.12C508.91 54.48 508.476 54.9667 508.196 55.58H506.876V47.64H515.496V48.86ZM518.74 51.32C518.833 50.1067 519.3 49.1533 520.14 48.46C520.993 47.7533 522.093 47.4 523.44 47.4C524.333 47.4 525.1 47.56 525.74 47.88C526.38 48.2 526.86 48.64 527.18 49.2C527.513 49.7467 527.68 50.3667 527.68 51.06C527.68 51.9 527.433 52.6267 526.94 53.24C526.447 53.8533 525.747 54.2333 524.84 54.38V54.48C525.787 54.6667 526.54 55.08 527.1 55.72C527.66 56.3467 527.94 57.1733 527.94 58.2C527.94 59.3467 527.553 60.2867 526.78 61.02C526.02 61.74 524.913 62.1 523.46 62.1C522.073 62.1 520.933 61.74 520.04 61.02C519.147 60.2867 518.633 59.2533 518.5 57.92H519.86C519.98 58.8133 520.353 59.54 520.98 60.1C521.607 60.6467 522.433 60.92 523.46 60.92C524.473 60.92 525.247 60.6533 525.78 60.12C526.327 59.5867 526.6 58.9067 526.6 58.08C526.6 56.0533 525.14 55.04 522.22 55.04H521.78V53.86H522.24C524.96 53.86 526.32 52.9733 526.32 51.2C526.32 50.4267 526.067 49.8067 525.56 49.34C525.053 48.86 524.333 48.62 523.4 48.62C522.493 48.62 521.74 48.86 521.14 49.34C520.553 49.8067 520.207 50.4667 520.1 51.32H518.74ZM530.199 65.72V65.58C531.559 64.18 532.593 62.5333 533.299 60.64C534.006 58.7467 534.359 56.74 534.359 54.62C534.359 52.4733 533.986 50.4267 533.239 48.48C532.506 46.5333 531.426 44.86 529.999 43.46V43.32H531.459C532.806 44.6 533.853 46.2267 534.599 48.2C535.346 50.1733 535.719 52.3133 535.719 54.62C535.719 56.9 535.359 59.0133 534.639 60.96C533.919 62.8933 532.933 64.48 531.679 65.72H530.199ZM544.106 60.9C546.559 59.06 548.453 57.4133 549.786 55.96C551.133 54.4933 551.806 53.06 551.806 51.66C551.806 50.74 551.573 50.0067 551.106 49.46C550.653 48.9 549.906 48.62 548.866 48.62C547.853 48.62 547.066 48.94 546.506 49.58C545.959 50.2067 545.653 51.0467 545.586 52.1H544.226C544.306 50.62 544.759 49.4733 545.586 48.66C546.426 47.8333 547.519 47.42 548.866 47.42C550.159 47.42 551.206 47.7867 552.006 48.52C552.806 49.24 553.206 50.2667 553.206 51.6C553.206 53.2133 552.533 54.78 551.186 56.3C549.853 57.8067 548.206 59.28 546.246 60.72H553.646V61.9H544.106V60.9ZM564.871 48.86H557.551V53.98C557.885 53.5133 558.371 53.1333 559.011 52.84C559.651 52.5333 560.345 52.38 561.091 52.38C562.185 52.38 563.078 52.6067 563.771 53.06C564.465 53.5 564.965 54.08 565.271 54.8C565.578 55.5067 565.731 56.2667 565.731 57.08C565.731 58.0133 565.551 58.86 565.191 59.62C564.845 60.3667 564.305 60.96 563.571 61.4C562.851 61.84 561.951 62.06 560.871 62.06C559.498 62.06 558.385 61.7067 557.531 61C556.678 60.28 556.158 59.3133 555.971 58.1H557.351C557.525 58.98 557.925 59.66 558.551 60.14C559.178 60.62 559.951 60.86 560.871 60.86C562.031 60.86 562.905 60.52 563.491 59.84C564.091 59.1467 564.391 58.2333 564.391 57.1C564.391 55.9933 564.091 55.1333 563.491 54.52C562.891 53.8933 562.031 53.58 560.911 53.58C560.138 53.58 559.458 53.76 558.871 54.12C558.285 54.48 557.851 54.9667 557.571 55.58H556.251V47.64H564.871V48.86ZM570.035 58.18C570.182 59.0467 570.515 59.7133 571.035 60.18C571.555 60.6467 572.268 60.88 573.175 60.88C574.428 60.88 575.355 60.3933 575.955 59.42C576.568 58.4333 576.848 56.8067 576.795 54.54C576.542 55.2733 576.055 55.8533 575.335 56.28C574.628 56.6933 573.815 56.9 572.895 56.9C571.495 56.9 570.368 56.48 569.515 55.64C568.675 54.8 568.255 53.6333 568.255 52.14C568.255 51.2467 568.428 50.44 568.775 49.72C569.122 49 569.648 48.4333 570.355 48.02C571.062 47.6067 571.928 47.4 572.955 47.4C574.848 47.4 576.168 48.02 576.915 49.26C577.662 50.4867 578.035 52.2533 578.035 54.56C578.035 57.0533 577.662 58.9267 576.915 60.18C576.182 61.4333 574.915 62.06 573.115 62.06C571.795 62.06 570.768 61.7067 570.035 61C569.302 60.28 568.868 59.34 568.735 58.18H570.035ZM573.115 55.7C573.742 55.7 574.315 55.5733 574.835 55.32C575.368 55.0533 575.795 54.6667 576.115 54.16C576.435 53.6533 576.595 53.0467 576.595 52.34C576.595 51.2467 576.282 50.3467 575.655 49.64C575.042 48.9333 574.155 48.58 572.995 48.58C571.968 48.58 571.142 48.9 570.515 49.54C569.902 50.18 569.595 51.0333 569.595 52.1C569.595 53.22 569.902 54.1 570.515 54.74C571.128 55.38 571.995 55.7 573.115 55.7ZM587.755 54V55.18H579.975V54H587.755ZM599.626 48.76L594.046 62H592.626L598.266 48.88H590.266V47.68H599.626V48.76ZM601.71 54.7C601.71 52.4067 602.063 50.6267 602.77 49.36C603.477 48.0933 604.743 47.46 606.57 47.46C608.397 47.46 609.663 48.0933 610.37 49.36C611.077 50.6267 611.43 52.4067 611.43 54.7C611.43 57.0333 611.077 58.84 610.37 60.12C609.663 61.4 608.397 62.04 606.57 62.04C604.73 62.04 603.457 61.4 602.75 60.12C602.057 58.84 601.71 57.0333 601.71 54.7ZM610.05 54.7C610.05 53.46 609.963 52.4133 609.79 51.56C609.617 50.7067 609.277 50.02 608.77 49.5C608.263 48.98 607.53 48.72 606.57 48.72C605.61 48.72 604.877 48.98 604.37 49.5C603.863 50.02 603.523 50.7067 603.35 51.56C603.177 52.4133 603.09 53.46 603.09 54.7C603.09 55.98 603.177 57.0533 603.35 57.92C603.523 58.7733 603.863 59.46 604.37 59.98C604.877 60.5 605.61 60.76 606.57 60.76C607.53 60.76 608.263 60.5 608.77 59.98C609.277 59.46 609.617 58.7733 609.79 57.92C609.963 57.0533 610.05 55.98 610.05 54.7ZM621.114 54V55.18H613.334V54H621.114ZM623.725 48.92V47.66H627.125V62H625.705V48.92H623.725ZM630.245 54.7C630.245 52.4067 630.599 50.6267 631.305 49.36C632.012 48.0933 633.279 47.46 635.105 47.46C636.932 47.46 638.199 48.0933 638.905 49.36C639.612 50.6267 639.965 52.4067 639.965 54.7C639.965 57.0333 639.612 58.84 638.905 60.12C638.199 61.4 636.932 62.04 635.105 62.04C633.265 62.04 631.992 61.4 631.285 60.12C630.592 58.84 630.245 57.0333 630.245 54.7ZM638.585 54.7C638.585 53.46 638.499 52.4133 638.325 51.56C638.152 50.7067 637.812 50.02 637.305 49.5C636.799 48.98 636.065 48.72 635.105 48.72C634.145 48.72 633.412 48.98 632.905 49.5C632.399 50.02 632.059 50.7067 631.885 51.56C631.712 52.4133 631.625 53.46 631.625 54.7C631.625 55.98 631.712 57.0533 631.885 57.92C632.059 58.7733 632.399 59.46 632.905 59.98C633.412 60.5 634.145 60.76 635.105 60.76C636.065 60.76 636.799 60.5 637.305 59.98C637.812 59.46 638.152 58.7733 638.325 57.92C638.499 57.0533 638.585 55.98 638.585 54.7Z" fill="white"/>
<g clip-path="url(#clip0_178_265)">
<path d="M410.076 51.3489C411.104 50.3208 411.104 48.6481 410.076 47.62L406.46 44.0043C405.907 43.4512 405.141 43.171 404.358 43.2354C403.59 43.2986 402.895 43.6902 402.452 44.3095C402.36 44.4381 402.271 44.5685 402.184 44.7L409.454 51.9705L410.076 51.3489Z" fill="white"/>
<path d="M424.996 62.5395L421.38 58.9239C420.352 57.8959 418.679 57.8958 417.651 58.9239L417.029 59.5455L424.3 66.8163C424.432 66.7292 424.562 66.6401 424.69 66.5481C425.31 66.105 425.701 65.4103 425.765 64.6423C425.829 63.8591 425.549 63.0927 424.996 62.5395Z" fill="white"/>
<path d="M414.544 60.939C413.839 60.939 413.177 60.6648 412.679 60.1668L408.833 56.3207C408.335 55.8227 408.061 55.1605 408.061 54.4562C408.061 54.0561 408.149 53.6698 408.317 53.3193L401.286 46.2878C400.297 48.3646 399.859 50.6913 400.04 53.0267C400.283 56.1738 401.64 59.1301 403.861 61.3511L407.649 65.1386C409.87 67.3596 412.826 68.7168 415.973 68.9602C416.317 68.9868 416.661 69 417.003 69C418.988 69 420.941 68.5575 422.712 67.7141L415.68 60.6826C415.33 60.8503 414.944 60.939 414.544 60.939Z" fill="white"/>
<path d="M417.695 39C417.21 39 416.816 39.3935 416.816 39.8789C416.816 40.3643 417.21 40.7578 417.695 40.7578C423.511 40.7578 428.242 45.4891 428.242 51.3047C428.242 51.7901 428.636 52.1836 429.121 52.1836C429.606 52.1836 430 51.7901 430 51.3047C430 44.5199 424.48 39 417.695 39Z" fill="white"/>
<path d="M417.695 51.3039C417.695 51.3039 417.695 51.3042 417.695 51.3047C417.695 51.7901 418.089 52.1836 418.574 52.1836C419.059 52.1836 419.453 51.7901 419.453 51.3047C419.453 50.3354 418.664 49.5469 417.695 49.5469C417.21 49.5469 416.816 49.94 416.816 50.4254C416.816 50.9108 417.21 51.3039 417.695 51.3039Z" fill="white"/>
<path d="M417.695 47.7891C419.634 47.7891 421.211 49.3662 421.211 51.3047C421.211 51.7901 421.604 52.1836 422.09 52.1836C422.575 52.1836 422.969 51.7901 422.969 51.3047C422.969 48.3969 420.603 46.0312 417.695 46.0312C417.21 46.0312 416.816 46.4248 416.816 46.9102C416.816 47.3955 417.21 47.7891 417.695 47.7891Z" fill="white"/>
<path d="M417.695 42.5156C417.21 42.5156 416.816 42.9091 416.816 43.3945C416.816 43.8799 417.21 44.2734 417.695 44.2734C421.572 44.2734 424.726 47.4277 424.726 51.3047C424.726 51.7901 425.12 52.1836 425.605 52.1836C426.091 52.1836 426.484 51.7901 426.484 51.3047C426.484 46.4584 422.541 42.5156 417.695 42.5156Z" fill="white"/>
</g>
<path d="M21.536 13.848V15.032H16.688V18.792H20.624V19.976H16.688V25H15.232V13.848H21.536ZM27.1185 25.144C26.2972 25.144 25.5505 24.9573 24.8785 24.584C24.2172 24.2107 23.6945 23.6827 23.3105 23C22.9372 22.3067 22.7505 21.5067 22.7505 20.6C22.7505 19.704 22.9425 18.9147 23.3265 18.232C23.7212 17.5387 24.2545 17.0107 24.9265 16.648C25.5985 16.2747 26.3505 16.088 27.1825 16.088C28.0145 16.088 28.7665 16.2747 29.4385 16.648C30.1105 17.0107 30.6385 17.5333 31.0225 18.216C31.4172 18.8987 31.6145 19.6933 31.6145 20.6C31.6145 21.5067 31.4118 22.3067 31.0065 23C30.6118 23.6827 30.0732 24.2107 29.3905 24.584C28.7078 24.9573 27.9505 25.144 27.1185 25.144ZM27.1185 23.864C27.6412 23.864 28.1318 23.7413 28.5905 23.496C29.0492 23.2507 29.4172 22.8827 29.6945 22.392C29.9825 21.9013 30.1265 21.304 30.1265 20.6C30.1265 19.896 29.9878 19.2987 29.7105 18.808C29.4332 18.3173 29.0705 17.9547 28.6225 17.72C28.1745 17.4747 27.6892 17.352 27.1665 17.352C26.6332 17.352 26.1425 17.4747 25.6945 17.72C25.2572 17.9547 24.9052 18.3173 24.6385 18.808C24.3718 19.2987 24.2385 19.896 24.2385 20.6C24.2385 21.3147 24.3665 21.9173 24.6225 22.408C24.8892 22.8987 25.2412 23.2667 25.6785 23.512C26.1158 23.7467 26.5958 23.864 27.1185 23.864ZM34.9849 13.16V25H33.5289V13.16H34.9849ZM38.9224 13.16V25H37.4664V13.16H38.9224ZM45.2279 25.144C44.4065 25.144 43.6599 24.9573 42.9879 24.584C42.3265 24.2107 41.8039 23.6827 41.4199 23C41.0465 22.3067 40.8599 21.5067 40.8599 20.6C40.8599 19.704 41.0519 18.9147 41.4359 18.232C41.8305 17.5387 42.3639 17.0107 43.0359 16.648C43.7079 16.2747 44.4599 16.088 45.2919 16.088C46.1239 16.088 46.8759 16.2747 47.5479 16.648C48.2199 17.0107 48.7479 17.5333 49.1319 18.216C49.5265 18.8987 49.7239 19.6933 49.7239 20.6C49.7239 21.5067 49.5212 22.3067 49.1159 23C48.7212 23.6827 48.1825 24.2107 47.4999 24.584C46.8172 24.9573 46.0599 25.144 45.2279 25.144ZM45.2279 23.864C45.7505 23.864 46.2412 23.7413 46.6999 23.496C47.1585 23.2507 47.5265 22.8827 47.8039 22.392C48.0919 21.9013 48.2359 21.304 48.2359 20.6C48.2359 19.896 48.0972 19.2987 47.8199 18.808C47.5425 18.3173 47.1799 17.9547 46.7319 17.72C46.2839 17.4747 45.7985 17.352 45.2759 17.352C44.7425 17.352 44.2519 17.4747 43.8039 17.72C43.3665 17.9547 43.0145 18.3173 42.7479 18.808C42.4812 19.2987 42.3479 19.896 42.3479 20.6C42.3479 21.3147 42.4759 21.9173 42.7319 22.408C42.9985 22.8987 43.3505 23.2667 43.7879 23.512C44.2252 23.7467 44.7052 23.864 45.2279 23.864ZM63.3183 16.232L60.5823 25H59.0783L56.9663 18.04L54.8543 25H53.3503L50.5983 16.232H52.0863L54.1023 23.592L56.2783 16.232H57.7663L59.8943 23.608L61.8783 16.232H63.3183ZM76.8049 16.232V25H75.3489V23.704C75.0715 24.152 74.6822 24.504 74.1809 24.76C73.6902 25.0053 73.1462 25.128 72.5489 25.128C71.8662 25.128 71.2529 24.9893 70.7089 24.712C70.1649 24.424 69.7329 23.9973 69.4129 23.432C69.1035 22.8667 68.9489 22.1787 68.9489 21.368V16.232H70.3889V21.176C70.3889 22.04 70.6075 22.7067 71.0449 23.176C71.4822 23.6347 72.0795 23.864 72.8369 23.864C73.6155 23.864 74.2289 23.624 74.6769 23.144C75.1249 22.664 75.3489 21.9653 75.3489 21.048V16.232H76.8049ZM82.3673 25.144C81.6953 25.144 81.0926 25.032 80.5593 24.808C80.0259 24.5733 79.6046 24.2533 79.2953 23.848C78.9859 23.432 78.8153 22.9573 78.7833 22.424H80.2873C80.3299 22.8613 80.5326 23.2187 80.8953 23.496C81.2686 23.7733 81.7539 23.912 82.3513 23.912C82.9059 23.912 83.3433 23.7893 83.6633 23.544C83.9833 23.2987 84.1433 22.9893 84.1433 22.616C84.1433 22.232 83.9726 21.9493 83.6313 21.768C83.2899 21.576 82.7619 21.3893 82.0473 21.208C81.3966 21.0373 80.8633 20.8667 80.4473 20.696C80.0419 20.5147 79.6899 20.2533 79.3913 19.912C79.1033 19.56 78.9593 19.1013 78.9593 18.536C78.9593 18.088 79.0926 17.6773 79.3593 17.304C79.6259 16.9307 80.0046 16.6373 80.4953 16.424C80.9859 16.2 81.5459 16.088 82.1753 16.088C83.1459 16.088 83.9299 16.3333 84.5273 16.824C85.1246 17.3147 85.4446 17.9867 85.4873 18.84H84.0313C83.9993 18.3813 83.8126 18.0133 83.4713 17.736C83.1406 17.4587 82.6926 17.32 82.1273 17.32C81.6046 17.32 81.1886 17.432 80.8793 17.656C80.5699 17.88 80.4153 18.1733 80.4153 18.536C80.4153 18.824 80.5059 19.064 80.6873 19.256C80.8793 19.4373 81.1139 19.5867 81.3913 19.704C81.6793 19.8107 82.0739 19.9333 82.5753 20.072C83.2046 20.2427 83.7166 20.4133 84.1113 20.584C84.5059 20.744 84.8419 20.9893 85.1193 21.32C85.4073 21.6507 85.5566 22.0827 85.5673 22.616C85.5673 23.096 85.4339 23.528 85.1673 23.912C84.9006 24.296 84.5219 24.6 84.0313 24.824C83.5513 25.0373 82.9966 25.144 82.3673 25.144Z" fill="white"/>
<line x1="295.5" x2="295.5" y2="102.005" stroke="white"/>
<line x1="730.5" x2="730.5" y2="102.005" stroke="white"/>
<g filter="url(#filter0_d_178_265)">
<circle cx="31" cy="64" r="17" fill="#1C140F"/>
</g>
<path d="M30.536 57.768L26.552 69H23.128L19.144 57.768H22.056L24.84 66.248L27.64 57.768H30.536ZM38.1915 69L34.4155 64.04V69H31.6795V57.768H34.4155V62.696L38.1595 57.768H41.3755L37.0235 63.272L41.5355 69H38.1915Z" fill="white"/>
<defs>
<filter id="filter0_d_178_265" x="0" y="37" width="62" height="62" filterUnits="userSpaceOnUse" color-interpolation-filters="sRGB">
<feFlood flood-opacity="0" result="BackgroundImageFix"/>
<feColorMatrix in="SourceAlpha" type="matrix" values="0 0 0 0 0 0 0 0 0 0 0 0 0 0 0 0 0 0 127 0" result="hardAlpha"/>
<feOffset dy="4"/>
<feGaussianBlur stdDeviation="7"/>
<feColorMatrix type="matrix" values="0 0 0 0 0 0 0 0 0 0 0 0 0 0 0 0 0 0 0.15 0"/>
<feBlend mode="normal" in2="BackgroundImageFix" result="effect1_dropShadow_178_265"/>
<feBlend mode="normal" in="SourceGraphic" in2="effect1_dropShadow_178_265" result="shape"/>
</filter>
<clipPath id="clip0_178_265">
<rect width="30" height="30" fill="white" transform="translate(400 39)"/>
</clipPath>
</defs>
</svg>
