<svg width="65" height="65" viewBox="0 0 65 65" fill="none" xmlns="http://www.w3.org/2000/svg">
<circle cx="32.5" cy="32.5" r="32" fill="white" stroke="black"/>
<g clip-path="url(#clip0_165_70)">
<path d="M38.1164 20H25.6282C24.4245 20 23.4443 20.8832 23.4443 21.968V44.837C23.4443 45.9222 24.4245 46.8055 25.6282 46.8055H38.1159C39.3201 46.8055 40.3003 45.9222 40.3003 44.8375V21.968C40.3003 20.8832 39.3201 20 38.1164 20ZM24.4359 23.5741H39.3087V40.5508H24.4359V23.5741ZM25.6282 20.8935H38.1159C38.7738 20.8935 39.3087 21.3756 39.3087 21.968V22.6805H24.4359V21.968C24.4359 21.3756 24.9708 20.8935 25.6282 20.8935ZM38.1164 45.9119H25.6282C24.9708 45.9119 24.4359 45.4299 24.4359 44.8375V41.4444H39.3087V44.8375C39.3087 45.4299 38.7738 45.9119 38.1164 45.9119Z" fill="#901AC7"/>
<path d="M31.8725 41.8911C30.7788 41.8911 29.8894 42.6926 29.8894 43.6781C29.8894 44.6637 30.7788 45.4652 31.8725 45.4652C32.9661 45.4652 33.8555 44.6637 33.8555 43.6781C33.8555 42.6926 32.9661 41.8911 31.8725 41.8911ZM31.8725 44.5717C31.3256 44.5717 30.8809 44.1709 30.8809 43.6781C30.8809 43.1854 31.3256 42.7846 31.8725 42.7846C32.4193 42.7846 32.864 43.1854 32.864 43.6781C32.864 44.1709 32.4193 44.5717 31.8725 44.5717Z" fill="#901AC7"/>
<path d="M29.8893 22.2338H31.8724C32.1465 22.2338 32.3681 22.0341 32.3681 21.7871C32.3681 21.54 32.1465 21.3403 31.8724 21.3403H29.8893C29.6152 21.3403 29.3936 21.54 29.3936 21.7871C29.3936 22.0341 29.6152 22.2338 29.8893 22.2338Z" fill="#901AC7"/>
<path d="M33.3598 22.2338H33.8555C34.1297 22.2338 34.3513 22.0341 34.3513 21.7871C34.3513 21.54 34.1297 21.3403 33.8555 21.3403H33.3598C33.0856 21.3403 32.864 21.54 32.864 21.7871C32.864 22.0341 33.0856 22.2338 33.3598 22.2338Z" fill="#901AC7"/>
<path d="M45.0656 22.0412C44.8718 21.8665 44.5585 21.8665 44.3646 22.0412C44.1708 22.2159 44.1708 22.4982 44.3646 22.6729C46.2168 24.342 46.2168 27.0578 44.3646 28.7273C44.1708 28.902 44.1708 29.1844 44.3646 29.3591C44.4613 29.4462 44.5882 29.49 44.7151 29.49C44.842 29.49 44.969 29.4462 45.0656 29.3591C47.3045 27.3419 47.3045 24.0587 45.0656 22.0412Z" fill="#901AC7"/>
<path d="M42.978 23.0583C42.7841 22.8836 42.4708 22.8836 42.277 23.0583C42.0831 23.2329 42.0831 23.5153 42.277 23.69C42.8902 24.2426 43.2278 24.9789 43.2278 25.7625C43.2278 26.5461 42.8902 27.2819 42.277 27.8345C42.0831 28.0092 42.0831 28.2916 42.277 28.4663C42.3736 28.5534 42.5006 28.5972 42.6275 28.5972C42.7544 28.5972 42.8813 28.5534 42.978 28.4663C43.7786 27.7452 44.2194 26.7847 44.2194 25.7625C44.2194 24.7403 43.7791 23.7793 42.978 23.0583Z" fill="#901AC7"/>
<path d="M19.3802 22.6729C19.574 22.4982 19.574 22.2159 19.3802 22.0412C19.1863 21.8665 18.873 21.8665 18.6791 22.0412C16.4403 24.0587 16.4403 27.3415 18.6791 29.3591C18.7758 29.4462 18.9027 29.49 19.0297 29.49C19.1566 29.49 19.2835 29.4462 19.3802 29.3591C19.574 29.1844 19.574 28.902 19.3802 28.7273C17.5275 27.0583 17.5275 24.3424 19.3802 22.6729Z" fill="#901AC7"/>
<path d="M21.4678 22.9347C21.2739 22.76 20.9606 22.76 20.7668 22.9347C19.9661 23.6558 19.5254 24.6163 19.5254 25.6385C19.5254 26.6607 19.9661 27.6212 20.7668 28.3427C20.8635 28.4298 20.9904 28.4736 21.1173 28.4736C21.2442 28.4736 21.3711 28.4298 21.4678 28.3427C21.6616 28.168 21.6616 27.8857 21.4678 27.711C20.8545 27.1584 20.5169 26.4221 20.5169 25.6385C20.5169 24.8549 20.854 24.1191 21.4678 23.5664C21.6611 23.3922 21.6611 23.1094 21.4678 22.9347Z" fill="#901AC7"/>
</g>
<rect x="17.5" y="17.5" width="28.7458" height="28.7458" stroke="black"/>
<defs>
<clipPath id="clip0_165_70">
<rect x="17" y="17" width="29.7458" height="29.7458" fill="white"/>
</clipPath>
</defs>
</svg>
