<svg width="65" height="65" viewBox="0 0 65 65" fill="none" xmlns="http://www.w3.org/2000/svg">
<circle cx="32.5" cy="32.5" r="32" fill="white" stroke="black"/>
<rect x="17.0254" y="15.9238" width="29.8475" height="29.8475" stroke="black"/>
<path d="M46.8293 41.889L46.1677 39.4195C46.0816 39.098 45.7511 38.907 45.4297 38.9934C45.1083 39.0796 44.9175 39.41 45.0036 39.7315L45.2933 40.8126L41.0652 38.4005V28.3757C41.0652 28.16 40.9499 27.9607 40.7629 27.8533L32.0266 22.8301V18.0566L32.8057 18.8358C33.041 19.0711 33.4225 19.0711 33.6579 18.8358C33.8932 18.6004 33.8932 18.2189 33.6579 17.9835L31.8502 16.1756C31.6146 15.9391 31.2288 15.9438 30.9979 16.1756L29.1902 17.9835C28.9549 18.2188 28.9549 18.6004 29.1902 18.8358C29.4255 19.071 29.8071 19.071 30.0424 18.8358L30.8215 18.0566V22.8312L22.1438 27.8541C21.9577 27.9619 21.8431 28.1607 21.8431 28.3757V38.3031L17.5555 40.7398L17.8456 39.6567C17.9317 39.3352 17.7409 39.0048 17.4195 38.9186C17.0979 38.8323 16.7676 39.0233 16.6815 39.3448L16.0199 41.8149C15.9361 42.1277 16.1234 42.4757 16.464 42.5577L18.9153 43.2146C19.2394 43.3014 19.5679 43.1073 19.6534 42.7885C19.7395 42.467 19.5488 42.1366 19.2273 42.0505L18.1817 41.7702L22.4371 39.3519L31.1563 44.4867C31.3429 44.5966 31.5747 44.598 31.763 44.4894L33.9734 43.2151C34.2617 43.0489 34.3607 42.6804 34.1945 42.3921C34.0283 42.1038 33.6598 42.0048 33.3715 42.171L31.4653 43.27L23.6458 38.6651L31.3861 34.2663L39.2755 38.7671L38.0685 39.463C37.7802 39.6292 37.6813 39.9977 37.8474 40.286C38.0137 40.5744 38.3822 40.6734 38.6704 40.5071L40.4884 39.459L44.6692 41.8441L43.6221 42.1246C43.3007 42.2108 43.1099 42.5412 43.1961 42.8627C43.2817 43.1825 43.611 43.3754 43.934 43.2888L46.349 42.6417C46.6939 42.5808 46.9218 42.2342 46.8293 41.889V41.889ZM39.86 37.7129L32.0265 33.2441V24.2203L39.86 28.7244V37.7129ZM23.0482 28.7232L30.8214 24.2238V33.2008L23.0482 37.6183V28.7232Z" fill="#901AC7"/>
</svg>
