<svg width="1297" height="418" viewBox="0 0 1297 418" fill="none" xmlns="http://www.w3.org/2000/svg">
<g opacity="0.06" filter="url(#filter0_f_170_81)">
<rect x="114" y="114" width="1068.84" height="189.218" rx="10" fill="#0D1025"/>
</g>
<rect x="78.4208" y="61.2017" width="1140" height="200" rx="10" fill="#1C140F"/>
<path d="M655.201 185.902C653.974 185.902 652.954 185.675 652.141 185.222C651.341 184.768 650.734 184.135 650.321 183.322C649.907 182.508 649.681 181.562 649.641 180.482C649.627 179.935 649.621 179.348 649.621 178.722C649.621 178.095 649.627 177.495 649.641 176.922C649.681 175.842 649.907 174.895 650.321 174.082C650.734 173.268 651.341 172.635 652.141 172.182C652.954 171.728 653.974 171.502 655.201 171.502C656.121 171.502 656.927 171.628 657.621 171.882C658.314 172.135 658.887 172.475 659.341 172.902C659.807 173.328 660.161 173.808 660.401 174.342C660.641 174.862 660.774 175.402 660.801 175.962C660.814 176.082 660.774 176.182 660.681 176.262C660.601 176.342 660.501 176.382 660.381 176.382H659.281C659.161 176.382 659.054 176.348 658.961 176.282C658.881 176.215 658.821 176.095 658.781 175.922C658.554 174.882 658.127 174.168 657.501 173.782C656.887 173.395 656.114 173.202 655.181 173.202C654.114 173.202 653.267 173.508 652.641 174.122C652.014 174.722 651.674 175.688 651.621 177.022C651.581 178.115 651.581 179.235 651.621 180.382C651.674 181.715 652.014 182.688 652.641 183.302C653.267 183.902 654.114 184.202 655.181 184.202C656.114 184.202 656.887 184.008 657.501 183.622C658.127 183.235 658.554 182.522 658.781 181.482C658.821 181.308 658.881 181.188 658.961 181.122C659.054 181.055 659.161 181.022 659.281 181.022H660.381C660.501 181.022 660.601 181.062 660.681 181.142C660.774 181.222 660.814 181.322 660.801 181.442C660.774 182.002 660.641 182.548 660.401 183.082C660.161 183.602 659.807 184.075 659.341 184.502C658.887 184.928 658.314 185.268 657.621 185.522C656.927 185.775 656.121 185.902 655.201 185.902ZM666.121 185.902C665.454 185.902 664.848 185.768 664.301 185.502C663.754 185.235 663.314 184.875 662.981 184.422C662.648 183.968 662.481 183.455 662.481 182.882C662.481 181.962 662.854 181.228 663.601 180.682C664.348 180.135 665.321 179.775 666.521 179.602L669.501 179.182V178.602C669.501 177.962 669.314 177.462 668.941 177.102C668.581 176.742 667.988 176.562 667.161 176.562C666.561 176.562 666.074 176.682 665.701 176.922C665.341 177.162 665.088 177.468 664.941 177.842C664.861 178.042 664.721 178.142 664.521 178.142H663.621C663.474 178.142 663.361 178.102 663.281 178.022C663.214 177.928 663.181 177.822 663.181 177.702C663.181 177.502 663.254 177.255 663.401 176.962C663.561 176.668 663.801 176.382 664.121 176.102C664.441 175.822 664.848 175.588 665.341 175.402C665.848 175.202 666.461 175.102 667.181 175.102C667.981 175.102 668.654 175.208 669.201 175.422C669.748 175.622 670.174 175.895 670.481 176.242C670.801 176.588 671.028 176.982 671.161 177.422C671.308 177.862 671.381 178.308 671.381 178.762V185.242C671.381 185.375 671.334 185.488 671.241 185.582C671.161 185.662 671.054 185.702 670.921 185.702H670.001C669.854 185.702 669.741 185.662 669.661 185.582C669.581 185.488 669.541 185.375 669.541 185.242V184.382C669.368 184.622 669.134 184.862 668.841 185.102C668.548 185.328 668.181 185.522 667.741 185.682C667.301 185.828 666.761 185.902 666.121 185.902ZM666.541 184.402C667.088 184.402 667.588 184.288 668.041 184.062C668.494 183.822 668.848 183.455 669.101 182.962C669.368 182.468 669.501 181.848 669.501 181.102V180.542L667.181 180.882C666.234 181.015 665.521 181.242 665.041 181.562C664.561 181.868 664.321 182.262 664.321 182.742C664.321 183.115 664.428 183.428 664.641 183.682C664.868 183.922 665.148 184.102 665.481 184.222C665.828 184.342 666.181 184.402 666.541 184.402ZM674.716 185.702C674.583 185.702 674.47 185.662 674.376 185.582C674.296 185.488 674.256 185.375 674.256 185.242V175.782C674.256 175.648 674.296 175.535 674.376 175.442C674.47 175.348 674.583 175.302 674.716 175.302H675.636C675.77 175.302 675.883 175.348 675.976 175.442C676.07 175.535 676.116 175.648 676.116 175.782V176.662C676.383 176.208 676.75 175.868 677.216 175.642C677.683 175.415 678.243 175.302 678.896 175.302H679.696C679.83 175.302 679.936 175.348 680.016 175.442C680.096 175.522 680.136 175.628 680.136 175.762V176.582C680.136 176.715 680.096 176.822 680.016 176.902C679.936 176.982 679.83 177.022 679.696 177.022H678.496C677.776 177.022 677.21 177.235 676.796 177.662C676.383 178.075 676.176 178.642 676.176 179.362V185.242C676.176 185.375 676.13 185.488 676.036 185.582C675.943 185.662 675.83 185.702 675.696 185.702H674.716ZM685.454 185.902C684.707 185.902 684.067 185.808 683.534 185.622C683.001 185.435 682.567 185.208 682.234 184.942C681.901 184.675 681.647 184.408 681.474 184.142C681.314 183.875 681.227 183.662 681.214 183.502C681.201 183.355 681.247 183.242 681.354 183.162C681.461 183.082 681.567 183.042 681.674 183.042H682.554C682.634 183.042 682.694 183.055 682.734 183.082C682.787 183.095 682.854 183.148 682.934 183.242C683.107 183.428 683.301 183.615 683.514 183.802C683.727 183.988 683.987 184.142 684.294 184.262C684.614 184.382 685.007 184.442 685.474 184.442C686.154 184.442 686.714 184.315 687.154 184.062C687.594 183.795 687.814 183.408 687.814 182.902C687.814 182.568 687.721 182.302 687.534 182.102C687.361 181.902 687.041 181.722 686.574 181.562C686.121 181.402 685.494 181.235 684.694 181.062C683.894 180.875 683.261 180.648 682.794 180.382C682.327 180.102 681.994 179.775 681.794 179.402C681.594 179.015 681.494 178.582 681.494 178.102C681.494 177.608 681.641 177.135 681.934 176.682C682.227 176.215 682.654 175.835 683.214 175.542C683.787 175.248 684.501 175.102 685.354 175.102C686.047 175.102 686.641 175.188 687.134 175.362C687.627 175.535 688.034 175.755 688.354 176.022C688.674 176.275 688.914 176.528 689.074 176.782C689.234 177.035 689.321 177.248 689.334 177.422C689.347 177.555 689.307 177.668 689.214 177.762C689.121 177.842 689.014 177.882 688.894 177.882H688.054C687.961 177.882 687.881 177.862 687.814 177.822C687.761 177.782 687.707 177.735 687.654 177.682C687.521 177.508 687.361 177.335 687.174 177.162C687.001 176.988 686.767 176.848 686.474 176.742C686.194 176.622 685.821 176.562 685.354 176.562C684.687 176.562 684.187 176.702 683.854 176.982C683.521 177.262 683.354 177.615 683.354 178.042C683.354 178.295 683.427 178.522 683.574 178.722C683.721 178.922 684.001 179.102 684.414 179.262C684.827 179.422 685.441 179.595 686.254 179.782C687.134 179.955 687.827 180.188 688.334 180.482C688.841 180.775 689.201 181.115 689.414 181.502C689.627 181.888 689.734 182.335 689.734 182.842C689.734 183.402 689.567 183.915 689.234 184.382C688.914 184.848 688.434 185.222 687.794 185.502C687.167 185.768 686.387 185.902 685.454 185.902Z" fill="white"/>
<path d="M656.596 152.952C654.962 152.952 653.587 152.702 652.471 152.202C651.371 151.685 650.554 151.052 650.021 150.302C649.504 149.552 649.229 148.802 649.196 148.052C649.196 147.902 649.246 147.777 649.346 147.677C649.462 147.577 649.596 147.527 649.746 147.527H653.196C653.396 147.527 653.554 147.568 653.671 147.652C653.787 147.718 653.896 147.835 653.996 148.002C654.312 148.818 655.187 149.227 656.621 149.227C657.437 149.227 658.071 149.035 658.521 148.652C658.971 148.268 659.196 147.752 659.196 147.102C659.196 145.852 658.362 145.227 656.696 145.227H653.896C653.712 145.227 653.554 145.168 653.421 145.052C653.304 144.918 653.246 144.76 653.246 144.577V143.102C653.246 142.718 653.387 142.435 653.671 142.252L657.696 138.952H650.796C650.629 138.952 650.479 138.893 650.346 138.777C650.229 138.643 650.171 138.493 650.171 138.327V135.852C650.171 135.668 650.229 135.518 650.346 135.402C650.462 135.268 650.612 135.202 650.796 135.202H662.446C662.629 135.202 662.779 135.268 662.896 135.402C663.012 135.518 663.071 135.668 663.071 135.852V138.077C663.071 138.427 662.937 138.702 662.671 138.902L658.971 142.277L659.146 142.327C660.646 142.543 661.837 143.06 662.721 143.877C663.604 144.693 664.046 145.868 664.046 147.402C664.046 148.518 663.721 149.502 663.071 150.352C662.437 151.185 661.554 151.827 660.421 152.277C659.304 152.727 658.029 152.952 656.596 152.952ZM673.572 152.952C671.272 152.935 669.522 152.327 668.322 151.127C667.122 149.927 666.463 148.343 666.347 146.377C666.313 145.477 666.297 144.668 666.297 143.952C666.297 143.218 666.313 142.385 666.347 141.452C666.413 140.202 666.722 139.093 667.272 138.127C667.838 137.143 668.647 136.368 669.697 135.802C670.763 135.235 672.055 134.952 673.572 134.952C675.088 134.952 676.38 135.235 677.447 135.802C678.513 136.368 679.322 137.143 679.872 138.127C680.438 139.093 680.755 140.202 680.822 141.452C680.855 141.918 680.872 142.752 680.872 143.952C680.872 145.118 680.855 145.927 680.822 146.377C680.705 148.343 680.047 149.927 678.847 151.127C677.647 152.327 675.888 152.935 673.572 152.952ZM673.572 149.177C674.355 149.177 674.938 148.927 675.322 148.427C675.705 147.91 675.913 147.185 675.947 146.252C675.98 145.768 675.997 144.985 675.997 143.902C675.997 142.818 675.98 142.052 675.947 141.602C675.913 140.702 675.705 139.993 675.322 139.477C674.938 138.943 674.355 138.677 673.572 138.677C672.072 138.677 671.28 139.652 671.197 141.602C671.18 142.052 671.172 142.818 671.172 143.902C671.172 144.985 671.18 145.768 671.197 146.252C671.28 148.202 672.072 149.177 673.572 149.177ZM688.637 151.877C688.47 151.877 688.32 151.818 688.187 151.702C688.07 151.568 688.012 151.418 688.012 151.252V146.727H683.612C683.445 146.727 683.295 146.668 683.162 146.552C683.045 146.418 682.987 146.268 682.987 146.102V144.177C682.987 143.993 683.045 143.843 683.162 143.727C683.278 143.593 683.428 143.527 683.612 143.527H688.012V139.152C688.012 138.968 688.07 138.818 688.187 138.702C688.32 138.585 688.47 138.527 688.637 138.527H690.787C690.97 138.527 691.12 138.585 691.237 138.702C691.37 138.818 691.437 138.968 691.437 139.152V143.527H695.787C695.97 143.527 696.12 143.593 696.237 143.727C696.37 143.843 696.437 143.993 696.437 144.177V146.102C696.437 146.285 696.37 146.435 696.237 146.552C696.12 146.668 695.97 146.727 695.787 146.727H691.437V151.252C691.437 151.435 691.37 151.585 691.237 151.702C691.12 151.818 690.97 151.877 690.787 151.877H688.637Z" fill="white"/>
<path d="M267.701 185.902C265.914 185.902 264.554 185.422 263.621 184.462C262.701 183.502 262.207 182.175 262.141 180.482C262.127 180.122 262.121 179.535 262.121 178.722C262.121 177.895 262.127 177.295 262.141 176.922C262.207 175.242 262.707 173.922 263.641 172.962C264.574 171.988 265.927 171.502 267.701 171.502C268.887 171.502 269.894 171.715 270.721 172.142C271.547 172.555 272.174 173.102 272.601 173.782C273.027 174.462 273.261 175.188 273.301 175.962V176.002C273.301 176.108 273.254 176.202 273.161 176.282C273.081 176.348 272.987 176.382 272.881 176.382H271.781C271.514 176.382 271.347 176.228 271.281 175.922C271.054 174.922 270.647 174.222 270.061 173.822C269.474 173.408 268.687 173.202 267.701 173.202C265.407 173.202 264.221 174.475 264.141 177.022C264.127 177.382 264.121 177.935 264.121 178.682C264.121 179.428 264.127 179.995 264.141 180.382C264.221 182.928 265.407 184.202 267.701 184.202C268.687 184.202 269.474 184.002 270.061 183.602C270.661 183.188 271.067 182.482 271.281 181.482C271.321 181.308 271.381 181.188 271.461 181.122C271.541 181.055 271.647 181.022 271.781 181.022H272.881C273.001 181.022 273.101 181.062 273.181 181.142C273.274 181.208 273.314 181.302 273.301 181.422C273.261 182.208 273.027 182.942 272.601 183.622C272.174 184.302 271.547 184.855 270.721 185.282C269.894 185.695 268.887 185.902 267.701 185.902ZM276.201 185.702C276.068 185.702 275.954 185.662 275.861 185.582C275.781 185.488 275.741 185.375 275.741 185.242V171.962C275.741 171.828 275.781 171.722 275.861 171.642C275.954 171.548 276.068 171.502 276.201 171.502H277.141C277.274 171.502 277.381 171.548 277.461 171.642C277.554 171.722 277.601 171.828 277.601 171.962V185.242C277.601 185.375 277.554 185.488 277.461 185.582C277.381 185.662 277.274 185.702 277.141 185.702H276.201ZM280.884 173.362C280.751 173.362 280.638 173.322 280.544 173.242C280.464 173.148 280.424 173.035 280.424 172.902V171.822C280.424 171.688 280.464 171.575 280.544 171.482C280.638 171.388 280.751 171.342 280.884 171.342H282.144C282.278 171.342 282.391 171.388 282.484 171.482C282.578 171.575 282.624 171.688 282.624 171.822V172.902C282.624 173.035 282.578 173.148 282.484 173.242C282.391 173.322 282.278 173.362 282.144 173.362H280.884ZM281.044 185.702C280.911 185.702 280.798 185.662 280.704 185.582C280.624 185.488 280.584 185.375 280.584 185.242V175.762C280.584 175.628 280.624 175.522 280.704 175.442C280.798 175.348 280.911 175.302 281.044 175.302H282.004C282.138 175.302 282.244 175.348 282.324 175.442C282.418 175.522 282.464 175.628 282.464 175.762V185.242C282.464 185.375 282.418 185.488 282.324 185.582C282.244 185.662 282.138 185.702 282.004 185.702H281.044ZM289.588 185.902C288.215 185.902 287.115 185.482 286.288 184.642C285.475 183.788 285.028 182.628 284.948 181.162L284.928 180.482L284.948 179.822C285.041 178.382 285.495 177.235 286.308 176.382C287.135 175.528 288.221 175.102 289.568 175.102C291.048 175.102 292.195 175.575 293.008 176.522C293.821 177.455 294.228 178.722 294.228 180.322V180.662C294.228 180.795 294.181 180.908 294.088 181.002C294.008 181.082 293.901 181.122 293.768 181.122H286.848V181.302C286.888 182.168 287.148 182.908 287.628 183.522C288.121 184.122 288.768 184.422 289.568 184.422C290.181 184.422 290.681 184.302 291.068 184.062C291.468 183.808 291.761 183.548 291.948 183.282C292.068 183.122 292.155 183.028 292.208 183.002C292.275 182.962 292.388 182.942 292.548 182.942H293.528C293.648 182.942 293.748 182.975 293.828 183.042C293.908 183.108 293.948 183.202 293.948 183.322C293.948 183.615 293.761 183.968 293.388 184.382C293.028 184.795 292.515 185.155 291.848 185.462C291.195 185.755 290.441 185.902 289.588 185.902ZM292.328 179.742V179.682C292.328 178.762 292.075 178.015 291.568 177.442C291.075 176.855 290.408 176.562 289.568 176.562C288.728 176.562 288.061 176.855 287.568 177.442C287.088 178.015 286.848 178.762 286.848 179.682V179.742H292.328ZM297.08 185.702C296.946 185.702 296.833 185.662 296.74 185.582C296.66 185.488 296.62 185.375 296.62 185.242V175.762C296.62 175.628 296.66 175.522 296.74 175.442C296.833 175.348 296.946 175.302 297.08 175.302H298.02C298.153 175.302 298.26 175.348 298.34 175.442C298.433 175.522 298.48 175.628 298.48 175.762V176.642C298.866 176.148 299.32 175.768 299.84 175.502C300.373 175.235 301.033 175.102 301.82 175.102C303.1 175.102 304.093 175.515 304.8 176.342C305.52 177.155 305.88 178.242 305.88 179.602V185.242C305.88 185.375 305.833 185.488 305.74 185.582C305.66 185.662 305.553 185.702 305.42 185.702H304.42C304.286 185.702 304.173 185.662 304.08 185.582C304 185.488 303.96 185.375 303.96 185.242V179.702C303.96 178.755 303.726 178.022 303.26 177.502C302.806 176.982 302.146 176.722 301.28 176.722C300.44 176.722 299.773 176.988 299.28 177.522C298.786 178.042 298.54 178.768 298.54 179.702V185.242C298.54 185.375 298.493 185.488 298.4 185.582C298.32 185.662 298.213 185.702 298.08 185.702H297.08ZM312.672 185.702C310.565 185.702 309.512 184.528 309.512 182.182V176.902H307.952C307.818 176.902 307.705 176.862 307.612 176.782C307.532 176.688 307.492 176.575 307.492 176.442V175.762C307.492 175.628 307.532 175.522 307.612 175.442C307.705 175.348 307.818 175.302 307.952 175.302H309.512V171.962C309.512 171.828 309.552 171.722 309.632 171.642C309.725 171.548 309.838 171.502 309.972 171.502H310.912C311.045 171.502 311.152 171.548 311.232 171.642C311.325 171.722 311.372 171.828 311.372 171.962V175.302H313.852C313.985 175.302 314.092 175.348 314.172 175.442C314.265 175.522 314.312 175.628 314.312 175.762V176.442C314.312 176.575 314.265 176.688 314.172 176.782C314.092 176.862 313.985 176.902 313.852 176.902H311.372V182.042C311.372 182.708 311.485 183.215 311.712 183.562C311.938 183.895 312.312 184.062 312.832 184.062H314.052C314.185 184.062 314.292 184.108 314.372 184.202C314.465 184.282 314.512 184.388 314.512 184.522V185.242C314.512 185.375 314.465 185.488 314.372 185.582C314.292 185.662 314.185 185.702 314.052 185.702H312.672ZM320.024 185.902C319.091 185.902 318.304 185.755 317.664 185.462C317.038 185.155 316.564 184.808 316.244 184.422C315.938 184.035 315.784 183.715 315.784 183.462C315.784 183.328 315.831 183.228 315.924 183.162C316.031 183.082 316.138 183.042 316.244 183.042H317.144C317.278 183.042 317.398 183.108 317.504 183.242C317.824 183.615 318.171 183.908 318.544 184.122C318.918 184.335 319.418 184.442 320.044 184.442C320.738 184.442 321.298 184.308 321.724 184.042C322.164 183.762 322.384 183.382 322.384 182.902C322.384 182.582 322.291 182.322 322.104 182.122C321.931 181.908 321.624 181.728 321.184 181.582C320.758 181.422 320.118 181.248 319.264 181.062C318.104 180.808 317.278 180.442 316.784 179.962C316.304 179.482 316.064 178.862 316.064 178.102C316.064 177.595 316.211 177.115 316.504 176.662C316.811 176.195 317.251 175.822 317.824 175.542C318.411 175.248 319.111 175.102 319.924 175.102C320.778 175.102 321.504 175.242 322.104 175.522C322.704 175.802 323.151 176.135 323.444 176.522C323.751 176.895 323.904 177.208 323.904 177.462C323.904 177.582 323.858 177.682 323.764 177.762C323.684 177.842 323.584 177.882 323.464 177.882H322.624C322.464 177.882 322.331 177.815 322.224 177.682C322.011 177.428 321.824 177.235 321.664 177.102C321.518 176.955 321.298 176.828 321.004 176.722C320.724 176.615 320.364 176.562 319.924 176.562C319.284 176.562 318.791 176.702 318.444 176.982C318.098 177.248 317.924 177.602 317.924 178.042C317.924 178.322 317.998 178.562 318.144 178.762C318.291 178.948 318.571 179.122 318.984 179.282C319.411 179.442 320.024 179.608 320.824 179.782C322.091 180.048 322.984 180.435 323.504 180.942C324.038 181.435 324.304 182.068 324.304 182.842C324.304 183.415 324.138 183.935 323.804 184.402C323.471 184.868 322.978 185.235 322.324 185.502C321.684 185.768 320.918 185.902 320.024 185.902Z" fill="white"/>
<path d="M265.221 152.702C265.071 152.702 264.946 152.652 264.846 152.552C264.746 152.435 264.696 152.302 264.696 152.152C264.696 152.035 264.729 151.927 264.796 151.827L268.296 147.052C268.079 147.102 267.854 147.118 267.621 147.102C266.604 147.035 265.637 146.76 264.721 146.277C263.804 145.777 263.054 145.093 262.471 144.227C261.904 143.343 261.621 142.343 261.621 141.227C261.621 140.127 261.896 139.102 262.446 138.152C263.012 137.185 263.837 136.41 264.921 135.827C266.021 135.243 267.337 134.952 268.871 134.952C270.421 134.952 271.754 135.218 272.871 135.752C273.987 136.285 274.829 137.018 275.396 137.952C275.979 138.868 276.271 139.902 276.271 141.052C276.271 141.968 276.079 142.81 275.696 143.577C275.329 144.327 274.771 145.21 274.021 146.227L273.571 146.852L269.646 152.202C269.412 152.535 269.112 152.702 268.746 152.702H265.221ZM268.921 143.702C269.654 143.702 270.254 143.477 270.721 143.027C271.204 142.577 271.446 141.968 271.446 141.202C271.446 140.435 271.204 139.827 270.721 139.377C270.237 138.927 269.637 138.702 268.921 138.702C268.187 138.702 267.579 138.927 267.096 139.377C266.629 139.827 266.396 140.435 266.396 141.202C266.396 141.968 266.629 142.577 267.096 143.027C267.562 143.477 268.171 143.702 268.921 143.702ZM285.608 152.952C283.308 152.935 281.558 152.327 280.358 151.127C279.158 149.927 278.5 148.343 278.383 146.377C278.35 145.477 278.333 144.668 278.333 143.952C278.333 143.218 278.35 142.385 278.383 141.452C278.45 140.202 278.758 139.093 279.308 138.127C279.875 137.143 280.683 136.368 281.733 135.802C282.8 135.235 284.091 134.952 285.608 134.952C287.125 134.952 288.416 135.235 289.483 135.802C290.55 136.368 291.358 137.143 291.908 138.127C292.475 139.093 292.791 140.202 292.858 141.452C292.891 141.918 292.908 142.752 292.908 143.952C292.908 145.118 292.891 145.927 292.858 146.377C292.741 148.343 292.083 149.927 290.883 151.127C289.683 152.327 287.925 152.935 285.608 152.952ZM285.608 149.177C286.391 149.177 286.975 148.927 287.358 148.427C287.741 147.91 287.95 147.185 287.983 146.252C288.016 145.768 288.033 144.985 288.033 143.902C288.033 142.818 288.016 142.052 287.983 141.602C287.95 140.702 287.741 139.993 287.358 139.477C286.975 138.943 286.391 138.677 285.608 138.677C284.108 138.677 283.316 139.652 283.233 141.602C283.216 142.052 283.208 142.818 283.208 143.902C283.208 144.985 283.216 145.768 283.233 146.252C283.316 148.202 284.108 149.177 285.608 149.177ZM300.673 151.877C300.506 151.877 300.356 151.818 300.223 151.702C300.106 151.568 300.048 151.418 300.048 151.252V146.727H295.648C295.481 146.727 295.331 146.668 295.198 146.552C295.081 146.418 295.023 146.268 295.023 146.102V144.177C295.023 143.993 295.081 143.843 295.198 143.727C295.314 143.593 295.464 143.527 295.648 143.527H300.048V139.152C300.048 138.968 300.106 138.818 300.223 138.702C300.356 138.585 300.506 138.527 300.673 138.527H302.823C303.006 138.527 303.156 138.585 303.273 138.702C303.406 138.818 303.473 138.968 303.473 139.152V143.527H307.823C308.006 143.527 308.156 143.593 308.273 143.727C308.406 143.843 308.473 143.993 308.473 144.177V146.102C308.473 146.285 308.406 146.435 308.273 146.552C308.156 146.668 308.006 146.727 307.823 146.727H303.473V151.252C303.473 151.435 303.406 151.585 303.273 151.702C303.156 151.818 303.006 151.877 302.823 151.877H300.673Z" fill="white"/>
<path d="M1059.12 185.702C1058.99 185.702 1058.87 185.662 1058.78 185.582C1058.7 185.488 1058.66 185.375 1058.66 185.242V172.182C1058.66 172.035 1058.7 171.922 1058.78 171.842C1058.87 171.748 1058.99 171.702 1059.12 171.702H1064.2C1065.71 171.702 1066.89 172.068 1067.76 172.802C1068.63 173.535 1069.06 174.595 1069.06 175.982C1069.06 177.368 1068.63 178.428 1067.76 179.162C1066.91 179.882 1065.72 180.242 1064.2 180.242H1060.66V185.242C1060.66 185.375 1060.61 185.488 1060.52 185.582C1060.43 185.662 1060.31 185.702 1060.18 185.702H1059.12ZM1064.1 178.562C1065.07 178.562 1065.81 178.342 1066.3 177.902C1066.81 177.462 1067.06 176.822 1067.06 175.982C1067.06 175.142 1066.81 174.502 1066.32 174.062C1065.83 173.608 1065.09 173.382 1064.1 173.382H1060.64V178.562H1064.1ZM1071.69 185.702C1071.56 185.702 1071.45 185.662 1071.35 185.582C1071.27 185.488 1071.23 185.375 1071.23 185.242V175.782C1071.23 175.648 1071.27 175.535 1071.35 175.442C1071.45 175.348 1071.56 175.302 1071.69 175.302H1072.61C1072.75 175.302 1072.86 175.348 1072.95 175.442C1073.05 175.535 1073.09 175.648 1073.09 175.782V176.662C1073.64 175.755 1074.57 175.302 1075.89 175.302H1076.67C1076.81 175.302 1076.91 175.348 1076.99 175.442C1077.09 175.522 1077.13 175.628 1077.13 175.762V176.582C1077.13 176.715 1077.09 176.822 1076.99 176.902C1076.91 176.982 1076.81 177.022 1076.67 177.022H1075.47C1074.75 177.022 1074.19 177.235 1073.77 177.662C1073.36 178.075 1073.15 178.642 1073.15 179.362V185.242C1073.15 185.375 1073.11 185.488 1073.01 185.582C1072.92 185.662 1072.81 185.702 1072.67 185.702H1071.69ZM1082.9 185.902C1081.43 185.902 1080.29 185.488 1079.48 184.662C1078.68 183.835 1078.25 182.735 1078.2 181.362L1078.18 180.502L1078.2 179.642C1078.25 178.282 1078.68 177.188 1079.5 176.362C1080.31 175.522 1081.44 175.102 1082.9 175.102C1084.35 175.102 1085.48 175.522 1086.3 176.362C1087.11 177.188 1087.54 178.282 1087.6 179.642C1087.61 179.788 1087.62 180.075 1087.62 180.502C1087.62 180.928 1087.61 181.215 1087.6 181.362C1087.54 182.735 1087.11 183.835 1086.3 184.662C1085.5 185.488 1084.36 185.902 1082.9 185.902ZM1082.9 184.362C1083.74 184.362 1084.4 184.095 1084.88 183.562C1085.37 183.028 1085.64 182.262 1085.68 181.262C1085.69 181.128 1085.7 180.875 1085.7 180.502C1085.7 180.128 1085.69 179.875 1085.68 179.742C1085.64 178.742 1085.37 177.975 1084.88 177.442C1084.4 176.908 1083.74 176.642 1082.9 176.642C1082.06 176.642 1081.39 176.908 1080.9 177.442C1080.4 177.975 1080.14 178.742 1080.12 179.742L1080.1 180.502L1080.12 181.262C1080.14 182.262 1080.4 183.028 1080.9 183.562C1081.39 184.095 1082.06 184.362 1082.9 184.362ZM1090.62 173.362C1090.49 173.362 1090.37 173.322 1090.28 173.242C1090.2 173.148 1090.16 173.035 1090.16 172.902V171.822C1090.16 171.688 1090.2 171.575 1090.28 171.482C1090.37 171.388 1090.49 171.342 1090.62 171.342H1091.9C1092.03 171.342 1092.15 171.388 1092.24 171.482C1092.33 171.575 1092.38 171.688 1092.38 171.822V172.902C1092.38 173.035 1092.33 173.148 1092.24 173.242C1092.15 173.322 1092.03 173.362 1091.9 173.362H1090.62ZM1088.42 189.502C1088.29 189.502 1088.18 189.455 1088.1 189.362C1088.01 189.282 1087.96 189.175 1087.96 189.042V188.362C1087.96 188.228 1088.01 188.115 1088.1 188.022C1088.18 187.942 1088.29 187.902 1088.42 187.902H1088.7C1089.35 187.902 1089.79 187.735 1090 187.402C1090.21 187.068 1090.32 186.575 1090.32 185.922V175.762C1090.32 175.628 1090.36 175.522 1090.44 175.442C1090.53 175.348 1090.65 175.302 1090.78 175.302H1091.76C1091.89 175.302 1092 175.348 1092.08 175.442C1092.17 175.522 1092.22 175.628 1092.22 175.762V185.942C1092.22 188.315 1091.08 189.502 1088.8 189.502H1088.42ZM1099.36 185.902C1097.98 185.902 1096.88 185.482 1096.06 184.642C1095.24 183.788 1094.8 182.628 1094.72 181.162L1094.7 180.482L1094.72 179.822C1094.81 178.382 1095.26 177.235 1096.08 176.382C1096.9 175.528 1097.99 175.102 1099.34 175.102C1100.82 175.102 1101.96 175.575 1102.78 176.522C1103.59 177.455 1104 178.722 1104 180.322V180.662C1104 180.795 1103.95 180.908 1103.86 181.002C1103.78 181.082 1103.67 181.122 1103.54 181.122H1096.62V181.302C1096.66 182.168 1096.92 182.908 1097.4 183.522C1097.89 184.122 1098.54 184.422 1099.34 184.422C1099.95 184.422 1100.45 184.302 1100.84 184.062C1101.24 183.808 1101.53 183.548 1101.72 183.282C1101.84 183.122 1101.92 183.028 1101.98 183.002C1102.04 182.962 1102.16 182.942 1102.32 182.942H1103.3C1103.42 182.942 1103.52 182.975 1103.6 183.042C1103.68 183.108 1103.72 183.202 1103.72 183.322C1103.72 183.615 1103.53 183.968 1103.16 184.382C1102.8 184.795 1102.28 185.155 1101.62 185.462C1100.96 185.755 1100.21 185.902 1099.36 185.902ZM1102.1 179.742V179.682C1102.1 178.762 1101.84 178.015 1101.34 177.442C1100.84 176.855 1100.18 176.562 1099.34 176.562C1098.5 176.562 1097.83 176.855 1097.34 177.442C1096.86 178.015 1096.62 178.762 1096.62 179.682V179.742H1102.1ZM1110.59 185.902C1109.16 185.902 1108.04 185.502 1107.23 184.702C1106.43 183.888 1106 182.755 1105.95 181.302L1105.93 180.502L1105.95 179.702C1106 178.248 1106.43 177.122 1107.23 176.322C1108.04 175.508 1109.16 175.102 1110.59 175.102C1111.55 175.102 1112.36 175.275 1113.03 175.622C1113.7 175.968 1114.19 176.395 1114.51 176.902C1114.84 177.408 1115.02 177.915 1115.05 178.422C1115.06 178.555 1115.02 178.662 1114.93 178.742C1114.84 178.822 1114.72 178.862 1114.59 178.862H1113.63C1113.5 178.862 1113.4 178.835 1113.33 178.782C1113.26 178.728 1113.2 178.622 1113.13 178.462C1112.9 177.822 1112.58 177.368 1112.17 177.102C1111.76 176.822 1111.24 176.682 1110.61 176.682C1109.78 176.682 1109.12 176.942 1108.63 177.462C1108.15 177.968 1107.89 178.748 1107.85 179.802L1107.83 180.522L1107.85 181.202C1107.89 182.268 1108.15 183.055 1108.63 183.562C1109.11 184.068 1109.77 184.322 1110.61 184.322C1111.24 184.322 1111.76 184.188 1112.17 183.922C1112.58 183.642 1112.9 183.182 1113.13 182.542C1113.2 182.382 1113.26 182.275 1113.33 182.222C1113.4 182.155 1113.5 182.122 1113.63 182.122H1114.59C1114.72 182.122 1114.84 182.168 1114.93 182.262C1115.02 182.342 1115.06 182.448 1115.05 182.582C1115.02 183.075 1114.84 183.582 1114.51 184.102C1114.19 184.608 1113.7 185.035 1113.03 185.382C1112.38 185.728 1111.56 185.902 1110.59 185.902ZM1121.48 185.702C1119.38 185.702 1118.32 184.528 1118.32 182.182V176.902H1116.76C1116.63 176.902 1116.52 176.862 1116.42 176.782C1116.34 176.688 1116.3 176.575 1116.3 176.442V175.762C1116.3 175.628 1116.34 175.522 1116.42 175.442C1116.52 175.348 1116.63 175.302 1116.76 175.302H1118.32V171.962C1118.32 171.828 1118.36 171.722 1118.44 171.642C1118.54 171.548 1118.65 171.502 1118.78 171.502H1119.72C1119.86 171.502 1119.96 171.548 1120.04 171.642C1120.14 171.722 1120.18 171.828 1120.18 171.962V175.302H1122.66C1122.8 175.302 1122.9 175.348 1122.98 175.442C1123.08 175.522 1123.12 175.628 1123.12 175.762V176.442C1123.12 176.575 1123.08 176.688 1122.98 176.782C1122.9 176.862 1122.8 176.902 1122.66 176.902H1120.18V182.042C1120.18 182.708 1120.3 183.215 1120.52 183.562C1120.75 183.895 1121.12 184.062 1121.64 184.062H1122.86C1123 184.062 1123.1 184.108 1123.18 184.202C1123.28 184.282 1123.32 184.388 1123.32 184.522V185.242C1123.32 185.375 1123.28 185.488 1123.18 185.582C1123.1 185.662 1123 185.702 1122.86 185.702H1121.48ZM1128.84 185.902C1127.9 185.902 1127.12 185.755 1126.48 185.462C1125.85 185.155 1125.38 184.808 1125.06 184.422C1124.75 184.035 1124.6 183.715 1124.6 183.462C1124.6 183.328 1124.64 183.228 1124.74 183.162C1124.84 183.082 1124.95 183.042 1125.06 183.042H1125.96C1126.09 183.042 1126.21 183.108 1126.32 183.242C1126.64 183.615 1126.98 183.908 1127.36 184.122C1127.73 184.335 1128.23 184.442 1128.86 184.442C1129.55 184.442 1130.11 184.308 1130.54 184.042C1130.98 183.762 1131.2 183.382 1131.2 182.902C1131.2 182.582 1131.1 182.322 1130.92 182.122C1130.74 181.908 1130.44 181.728 1130 181.582C1129.57 181.422 1128.93 181.248 1128.08 181.062C1126.92 180.808 1126.09 180.442 1125.6 179.962C1125.12 179.482 1124.88 178.862 1124.88 178.102C1124.88 177.595 1125.02 177.115 1125.32 176.662C1125.62 176.195 1126.06 175.822 1126.64 175.542C1127.22 175.248 1127.92 175.102 1128.74 175.102C1129.59 175.102 1130.32 175.242 1130.92 175.522C1131.52 175.802 1131.96 176.135 1132.26 176.522C1132.56 176.895 1132.72 177.208 1132.72 177.462C1132.72 177.582 1132.67 177.682 1132.58 177.762C1132.5 177.842 1132.4 177.882 1132.28 177.882H1131.44C1131.28 177.882 1131.14 177.815 1131.04 177.682C1130.82 177.428 1130.64 177.235 1130.48 177.102C1130.33 176.955 1130.11 176.828 1129.82 176.722C1129.54 176.615 1129.18 176.562 1128.74 176.562C1128.1 176.562 1127.6 176.702 1127.26 176.982C1126.91 177.248 1126.74 177.602 1126.74 178.042C1126.74 178.322 1126.81 178.562 1126.96 178.762C1127.1 178.948 1127.38 179.122 1127.8 179.282C1128.22 179.442 1128.84 179.608 1129.64 179.782C1130.9 180.048 1131.8 180.435 1132.32 180.942C1132.85 181.435 1133.12 182.068 1133.12 182.842C1133.12 183.415 1132.95 183.935 1132.62 184.402C1132.28 184.868 1131.79 185.235 1131.14 185.502C1130.5 185.768 1129.73 185.902 1128.84 185.902Z" fill="white"/>
<path d="M1065 152.977C1063.48 152.977 1062.17 152.735 1061.07 152.252C1059.99 151.768 1059.16 151.127 1058.6 150.327C1058.05 149.527 1057.75 148.652 1057.72 147.702C1057.72 147.552 1057.77 147.427 1057.87 147.327C1057.97 147.227 1058.1 147.177 1058.25 147.177H1061.77C1062.17 147.177 1062.45 147.335 1062.6 147.652C1062.83 148.202 1063.14 148.602 1063.52 148.852C1063.92 149.102 1064.41 149.227 1065 149.227C1065.71 149.227 1066.3 149.01 1066.77 148.577C1067.25 148.143 1067.5 147.535 1067.5 146.752C1067.5 146.068 1067.26 145.502 1066.8 145.052C1066.33 144.602 1065.73 144.377 1065 144.377C1064.58 144.377 1064.25 144.435 1064 144.552C1063.75 144.652 1063.5 144.793 1063.27 144.977C1063.02 145.177 1062.8 145.277 1062.62 145.277H1059.15C1059 145.277 1058.86 145.227 1058.75 145.127C1058.65 145.01 1058.6 144.877 1058.6 144.727L1059.52 135.952C1059.54 135.718 1059.62 135.535 1059.77 135.402C1059.94 135.268 1060.13 135.202 1060.35 135.202H1070.52C1070.7 135.202 1070.85 135.26 1070.97 135.377C1071.09 135.493 1071.15 135.643 1071.15 135.827V138.327C1071.15 138.493 1071.09 138.643 1070.97 138.777C1070.85 138.893 1070.7 138.952 1070.52 138.952H1063.25L1062.95 142.027C1063.35 141.743 1063.8 141.535 1064.3 141.402C1064.8 141.252 1065.45 141.177 1066.25 141.177C1067.31 141.177 1068.31 141.418 1069.25 141.902C1070.18 142.368 1070.92 143.035 1071.47 143.902C1072.04 144.768 1072.32 145.76 1072.32 146.877C1072.32 148.043 1072.03 149.093 1071.45 150.027C1070.86 150.943 1070.01 151.668 1068.9 152.202C1067.8 152.718 1066.5 152.977 1065 152.977ZM1081.73 152.952C1079.43 152.935 1077.68 152.327 1076.48 151.127C1075.28 149.927 1074.62 148.343 1074.5 146.377C1074.47 145.477 1074.45 144.668 1074.45 143.952C1074.45 143.218 1074.47 142.385 1074.5 141.452C1074.57 140.202 1074.88 139.093 1075.43 138.127C1076 137.143 1076.8 136.368 1077.85 135.802C1078.92 135.235 1080.21 134.952 1081.73 134.952C1083.25 134.952 1084.54 135.235 1085.6 135.802C1086.67 136.368 1087.48 137.143 1088.03 138.127C1088.6 139.093 1088.91 140.202 1088.98 141.452C1089.01 141.918 1089.03 142.752 1089.03 143.952C1089.03 145.118 1089.01 145.927 1088.98 146.377C1088.86 148.343 1088.2 149.927 1087 151.127C1085.8 152.327 1084.05 152.935 1081.73 152.952ZM1081.73 149.177C1082.51 149.177 1083.1 148.927 1083.48 148.427C1083.86 147.91 1084.07 147.185 1084.1 146.252C1084.14 145.768 1084.15 144.985 1084.15 143.902C1084.15 142.818 1084.14 142.052 1084.1 141.602C1084.07 140.702 1083.86 139.993 1083.48 139.477C1083.1 138.943 1082.51 138.677 1081.73 138.677C1080.23 138.677 1079.44 139.652 1079.35 141.602C1079.34 142.052 1079.33 142.818 1079.33 143.902C1079.33 144.985 1079.34 145.768 1079.35 146.252C1079.44 148.202 1080.23 149.177 1081.73 149.177ZM1096.79 151.877C1096.63 151.877 1096.48 151.818 1096.34 151.702C1096.23 151.568 1096.17 151.418 1096.17 151.252V146.727H1091.77C1091.6 146.727 1091.45 146.668 1091.32 146.552C1091.2 146.418 1091.14 146.268 1091.14 146.102V144.177C1091.14 143.993 1091.2 143.843 1091.32 143.727C1091.44 143.593 1091.59 143.527 1091.77 143.527H1096.17V139.152C1096.17 138.968 1096.23 138.818 1096.34 138.702C1096.48 138.585 1096.63 138.527 1096.79 138.527H1098.94C1099.13 138.527 1099.28 138.585 1099.39 138.702C1099.53 138.818 1099.59 138.968 1099.59 139.152V143.527H1103.94C1104.13 143.527 1104.28 143.593 1104.39 143.727C1104.53 143.843 1104.59 143.993 1104.59 144.177V146.102C1104.59 146.285 1104.53 146.435 1104.39 146.552C1104.28 146.668 1104.13 146.727 1103.94 146.727H1099.59V151.252C1099.59 151.435 1099.53 151.585 1099.39 151.702C1099.28 151.818 1099.13 151.877 1098.94 151.877H1096.79Z" fill="white"/>
<path d="M443.921 98.415V223.989" stroke="#EEEFF2" stroke-width="2" stroke-linecap="round"/>
<path d="M873.921 98.415V223.989" stroke="#EEEFF2" stroke-width="2" stroke-linecap="round"/>
<rect x="556.921" y="133.702" width="55" height="55" rx="27.5" fill="#FFECEC"/>
<path d="M591.421 158.202C591.421 157.282 591.24 156.372 590.888 155.523C590.536 154.674 590.021 153.902 589.371 153.252C588.721 152.602 587.949 152.086 587.1 151.735C586.25 151.383 585.34 151.202 584.421 151.202C583.502 151.202 582.591 151.383 581.742 151.735C580.893 152.086 580.121 152.602 579.471 153.252C578.821 153.902 578.305 154.674 577.954 155.523C577.602 156.372 577.421 157.282 577.421 158.202C577.421 159.589 577.831 160.879 578.526 161.967H578.518C580.878 165.662 584.421 171.202 584.421 171.202L590.324 161.967H590.317C591.037 160.843 591.42 159.536 591.421 158.202ZM584.421 161.202C583.625 161.202 582.862 160.886 582.299 160.323C581.737 159.76 581.421 158.997 581.421 158.202C581.421 157.406 581.737 156.643 582.299 156.08C582.862 155.518 583.625 155.202 584.421 155.202C585.216 155.202 585.979 155.518 586.542 156.08C587.105 156.643 587.421 157.406 587.421 158.202C587.421 158.997 587.105 159.76 586.542 160.323C585.979 160.886 585.216 161.202 584.421 161.202Z" fill="#901AC7"/>
<rect x="169.421" y="133.702" width="55" height="55" rx="27.5" fill="#FFECEC"/>
<path fill-rule="evenodd" clip-rule="evenodd" d="M196.921 160.002C197.876 160.002 198.791 159.622 199.466 158.947C200.141 158.272 200.521 157.357 200.521 156.402C200.521 155.447 200.141 154.531 199.466 153.856C198.791 153.181 197.876 152.802 196.921 152.802C195.966 152.802 195.05 153.181 194.375 153.856C193.7 154.531 193.321 155.447 193.321 156.402C193.321 157.357 193.7 158.272 194.375 158.947C195.05 159.622 195.966 160.002 196.921 160.002ZM191.819 170.802C189.998 170.802 188.463 169.27 189.16 167.587C189.582 166.568 190.201 165.642 190.981 164.862C191.761 164.082 192.687 163.463 193.706 163.041C194.725 162.619 195.818 162.402 196.921 162.402C198.024 162.402 199.116 162.619 200.135 163.041C201.154 163.463 202.08 164.082 202.86 164.862C203.64 165.642 204.259 166.568 204.681 167.587C205.379 169.27 203.844 170.802 202.022 170.802H191.819Z" fill="#901AC7"/>
<rect x="965.421" y="133.702" width="55" height="55" rx="27.5" fill="#FFECEC"/>
<path d="M1000.92 152.202H984.921C984.39 152.202 983.882 152.412 983.507 152.787C983.131 153.163 982.921 153.671 982.921 154.202V158.202C982.921 158.732 983.131 159.241 983.507 159.616C983.882 159.991 984.39 160.202 984.921 160.202H1000.92C1001.45 160.202 1001.96 159.991 1002.33 159.616C1002.71 159.241 1002.92 158.732 1002.92 158.202V154.202C1002.92 153.671 1002.71 153.163 1002.33 152.787C1001.96 152.412 1001.45 152.202 1000.92 152.202ZM995.921 156.202C995.921 156.754 995.473 157.202 994.921 157.202C994.368 157.202 993.921 156.754 993.921 156.202C993.921 155.649 994.368 155.202 994.921 155.202C995.473 155.202 995.921 155.649 995.921 156.202ZM999.921 156.202C999.921 156.754 999.473 157.202 998.921 157.202C998.368 157.202 997.921 156.754 997.921 156.202C997.921 155.649 998.368 155.202 998.921 155.202C999.473 155.202 999.921 155.649 999.921 156.202ZM1000.92 162.202H984.921C984.39 162.202 983.882 162.412 983.507 162.787C983.131 163.163 982.921 163.671 982.921 164.202V168.202C982.921 168.732 983.131 169.241 983.507 169.616C983.882 169.991 984.39 170.202 984.921 170.202H1000.92C1001.45 170.202 1001.96 169.991 1002.33 169.616C1002.71 169.241 1002.92 168.732 1002.92 168.202V164.202C1002.92 163.671 1002.71 163.163 1002.33 162.787C1001.96 162.412 1001.45 162.202 1000.92 162.202ZM995.921 166.202C995.921 166.754 995.473 167.202 994.921 167.202C994.368 167.202 993.921 166.754 993.921 166.202C993.921 165.649 994.368 165.202 994.921 165.202C995.473 165.202 995.921 165.649 995.921 166.202ZM999.921 166.202C999.921 166.754 999.473 167.202 998.921 167.202C998.368 167.202 997.921 166.754 997.921 166.202C997.921 165.649 998.368 165.202 998.921 165.202C999.473 165.202 999.921 165.649 999.921 166.202Z" fill="#901AC7"/>
<defs>
<filter id="filter0_f_170_81" x="0" y="0" width="1296.84" height="417.218" filterUnits="userSpaceOnUse" color-interpolation-filters="sRGB">
<feFlood flood-opacity="0" result="BackgroundImageFix"/>
<feBlend mode="normal" in="SourceGraphic" in2="BackgroundImageFix" result="shape"/>
<feGaussianBlur stdDeviation="57" result="effect1_foregroundBlur_170_81"/>
</filter>
</defs>
</svg>
