<svg width="21" height="18" viewBox="0 0 21 18" fill="none" xmlns="http://www.w3.org/2000/svg">
<path d="M1.26222 9.96297C1.34814 9.97623 1.4351 9.98235 1.52211 9.98127L16.3372 9.98127L16.0141 10.1241C15.6984 10.2662 15.4111 10.4596 15.1652 10.6956L11.0107 14.6455C10.4635 15.1421 10.3716 15.941 10.7928 16.5383C11.2831 17.1749 12.2232 17.3131 12.8928 16.847C12.9469 16.8093 12.9983 16.7683 13.0466 16.7241L20.5593 9.58128C21.1464 9.0237 21.147 8.1192 20.5605 7.56099C20.5601 7.56063 20.5597 7.56023 20.5593 7.55987L13.0466 0.417091C12.459 -0.140002 11.5077 -0.138752 10.9217 0.419903C10.8756 0.463875 10.8325 0.51066 10.7928 0.559945C10.3716 1.15731 10.4635 1.95618 11.0107 2.45278L15.1577 6.40988C15.3781 6.6197 15.6316 6.79564 15.909 6.93131L16.3597 7.12416L1.60479 7.12416C0.837232 7.09706 0.163813 7.60684 0.0196161 8.32415C-0.113218 9.10294 0.443098 9.83663 1.26222 9.96297Z" fill="#901AC7"/>
</svg>
